<svg width="391" height="541" viewBox="0 0 391 541" fill="none" xmlns="http://www.w3.org/2000/svg">
<rect x="23" y="26" width="345" height="489" rx="172.5" fill="#F1F0EB"/>
<mask id="mask0" style="mask-type:alpha" maskUnits="userSpaceOnUse" x="23" y="26" width="345" height="489">
<rect x="23" y="26" width="345" height="489" rx="172.5" fill="#F1F0EB"/>
</mask>
<g mask="url(#mask0)">
<path d="M113.712 211.828C113.712 211.828 122.888 123.725 158.188 107.258C193.489 90.7905 236.511 100.877 252.742 139.461C268.973 178.044 285.596 281.328 284.165 318.634C282.734 355.939 237.678 400.232 220.265 421.798C202.853 443.364 174.667 465.418 165.468 447.633C156.269 429.848 102.219 361.898 105.086 331.039C107.953 300.179 113.712 211.828 113.712 211.828Z" fill="#FDBA90"/>
<path opacity="0.56" d="M187.718 251.716C189.378 252.117 197.85 251.745 200.753 250.547C203.656 249.349 206.48 247.303 206.848 246.063C207.216 244.823 202.584 238.858 197.911 241.193C193.238 243.529 187.064 245.194 182.176 242.73C177.287 240.265 173.569 242.036 172.358 243.215C171.146 244.395 170.854 246.484 172.484 247.306C174.113 248.128 177.883 250.511 178.732 250.432C179.582 250.352 177.334 248.361 176.426 247.309C175.517 246.257 176.317 244.91 177.715 245.011C179.114 245.112 182.936 248.766 184.112 249.977C185.287 251.188 187.718 251.716 187.718 251.716Z" fill="#CD8F6E"/>
<path opacity="0.23" d="M213.105 196.551C215.249 194.173 221.854 190.428 225.784 190.572C229.715 190.715 227.531 193.654 225.531 194.072C223.531 194.49 215.977 195.774 213.855 197.872C211.733 199.97 213.105 196.551 213.105 196.551Z" fill="#FFE5D9"/>
<path opacity="0.22" d="M260.38 213.563C260.38 213.563 241.357 222.332 232.468 235.634C223.579 248.936 226.311 268.607 233.239 269.043C240.166 269.48 258.559 251.884 261.024 244.09C263.489 236.296 260.38 213.563 260.38 213.563Z" fill="#EA9778"/>
<path opacity="0.44" d="M198.301 239.674C195.965 240.913 191.72 239.198 191.523 236.087C191.326 232.976 194.406 227.288 196.414 224.9C198.422 222.511 201.497 234.415 201.304 237.076C201.112 239.737 198.301 239.674 198.301 239.674Z" fill="#CE8A6F"/>
<path opacity="0.67" d="M213.978 179.507C213.978 179.507 204.676 181.318 201.071 193.539C197.467 205.761 195.854 216.463 196.657 225.082C197.46 233.7 202.532 240.631 201.76 243.521C200.988 246.411 202.672 247.906 204.116 244.782C205.559 241.657 205.977 247.228 205.977 247.228C205.977 247.228 210.154 247.156 210.166 240.416C210.178 233.677 204.008 228.592 202.792 217.447C201.576 206.303 205.218 197.056 215.565 192.098C225.911 187.14 238.179 185.175 238.179 185.175L213.978 179.507Z" fill="#A36F50"/>
<path opacity="0.22" d="M238.095 194.554C241.022 191.913 245.687 193.44 247.964 196.338C250.241 199.236 251.991 196.405 253.492 195.381C254.993 194.358 257.919 209.779 257.611 214.037C257.303 218.295 252.993 219.496 253.295 217.394C253.597 215.293 253.889 206.314 251.381 206.471C248.873 206.628 246.959 208.729 246.891 211.17C246.823 213.612 242.654 216.996 237.696 216.519C232.737 216.042 229.838 212.384 229.838 212.384C229.838 212.384 241.094 211.787 242.188 208.653C243.283 205.52 235.708 202.919 234.699 200.42C233.69 197.92 238.095 194.554 238.095 194.554Z" fill="#B37355"/>
<path opacity="0.22" d="M145.614 169.674C145.614 169.674 139.684 177.685 140.112 181.633C140.541 185.581 144.451 185.751 147.983 186.244C151.515 186.737 148.168 191.89 146.813 192.543C145.457 193.196 138.538 195.181 139.765 196.286C140.992 197.39 143.321 201.362 145.982 202.387C148.643 203.412 141.278 206.805 136.059 203.145C130.84 199.484 132.871 176.473 133.396 172.588C133.92 168.703 145.614 169.674 145.614 169.674Z" fill="#A96A50"/>
<path opacity="0.22" d="M124.595 210.396C124.595 210.396 145.162 223.388 148.875 235.975C152.588 248.563 145.833 264.876 134.17 258.642C122.508 252.409 114.958 229.667 115.62 220.525C116.281 211.384 124.595 210.396 124.595 210.396Z" fill="#EA9778"/>
<path opacity="0.3" d="M129.243 215.566C129.243 215.566 137.953 195.43 138.352 189.911C138.752 184.392 135.71 175.948 136.485 174.639C137.26 173.329 134.372 169.335 134.372 169.335C134.372 169.335 123.285 205.86 124.108 214.242C124.931 222.623 129.243 215.566 129.243 215.566Z" fill="#724837"/>
<path opacity="0.17" d="M218.771 381.111C218.771 381.111 220.146 372.638 210.673 373.379L201.199 374.12C201.199 374.12 207.802 367.94 214.797 343.719C221.793 319.498 234.849 318.583 234.849 318.583C234.849 318.583 215.671 352.815 215.348 359.926C215.026 367.036 211.344 365.341 215.025 367.035C218.706 368.728 218.912 365.953 228.978 371.404C239.045 376.856 226.801 388.335 226.801 388.335L218.771 381.111Z" fill="#A97661"/>
<path d="M147.291 294.386C147.291 294.386 153.237 298.677 154.949 300.29C156.661 301.903 156.639 302.116 156.639 302.116C156.639 302.116 146.585 287.533 143.67 282.204C140.755 276.876 133.842 256.791 133.842 256.791C133.842 256.791 132.651 253.979 130.063 244.334C127.476 234.689 129.867 259.119 131.812 266.749C133.756 274.379 147.291 294.386 147.291 294.386Z" fill="#5B362A"/>
<path opacity="0.44" d="M235.235 289.415C235.235 289.415 221.476 303.161 215.52 306.376C209.564 309.591 198.766 314.158 195.657 314.409C192.549 314.66 200.759 316.205 203.02 319.46C205.281 322.716 209.33 320.93 209.632 316.76C209.934 312.589 208.688 311.192 213.23 308.667C217.771 306.142 227.23 301.952 228.621 304.074C230.013 306.195 225.957 316.246 230.588 324.546C235.219 332.846 241.65 345.913 241.65 345.913C241.65 345.913 245.173 326.789 242.798 318.535C240.423 310.281 235.236 289.417 235.236 289.417L235.235 289.415Z" fill="#885D41"/>
<path opacity="0.14" d="M154.949 300.29C154.949 300.29 162.503 307.611 166.515 309.685C170.527 311.759 173.005 312.001 173.681 314.158C174.358 316.315 173.995 324.612 169.36 331.172C164.724 337.732 160.375 338.136 160.375 338.136C160.375 338.136 154.504 314.648 155.016 309.217C155.528 303.785 154.949 300.29 154.949 300.29Z" fill="#7D5945"/>
<path opacity="0.25" d="M192.806 442.004C192.806 442.004 193.558 385.455 186.617 377.345C179.677 369.235 172.863 375.399 169.416 365.162C165.968 354.926 161.175 322.726 150.911 306.755C140.648 290.784 135.847 284.843 135.847 284.843L119.51 350.792C119.51 350.792 168.486 436.458 175.144 440.731C181.802 445.003 192.806 442.004 192.806 442.004Z" fill="#A97661"/>
<path d="M141.901 196.021C141.901 196.021 143.61 199.567 148.949 201.379C154.288 203.19 159.967 203.549 162.315 202.874C164.663 202.199 164.527 201.873 167.427 202.32C170.327 202.767 171.674 202.786 172.149 201.71C172.623 200.635 172.388 200.663 168.845 197.693C165.303 194.723 158.618 190.429 151.306 191.806C143.993 193.183 141.901 196.021 141.901 196.021Z" fill="white"/>
<path d="M240.05 205.341C240.076 205.72 240.012 206.101 239.862 206.451C239.713 206.801 239.482 207.111 239.19 207.354C238.175 208.232 233.865 210.852 230.304 210.753C226.744 210.654 216.783 207.745 215.283 207.305C213.784 206.864 210.849 206.883 210.654 206.277C210.46 205.671 211.161 204.452 214.245 202.661C217.329 200.87 220.584 199.399 220.584 199.399C220.584 199.399 231.786 198.607 233.242 199.513C234.698 200.42 240.05 205.341 240.05 205.341Z" fill="white"/>
<path d="M151.305 191.802C150.558 192.611 150.129 193.664 150.099 194.765C150.045 196.624 150.646 199.798 152.584 200.969C154.521 202.14 157.974 203.141 159.559 202.068C161.143 200.994 162.938 198.626 163.106 196.856C163.209 195.804 163.138 194.742 162.897 193.713C162.897 193.713 155.522 191.629 154.572 191.56C153.622 191.491 151.305 191.802 151.305 191.802Z" fill="#563A27"/>
<path d="M221.464 199.295C221.464 199.295 219.871 201.042 219.971 202.951C220.071 204.861 220.733 207.762 223.189 208.851C225.646 209.94 228.761 210.166 230.346 208.536C231.931 206.907 233.056 205.877 232.895 203.435C232.733 200.993 231.169 199.363 231.169 199.363L221.464 199.295Z" fill="#563A27"/>
<path d="M220.757 204.424C220.537 203.563 222.139 202.835 223.249 203.055C224.359 203.275 223.698 204.637 224.637 205.267C225.576 205.898 224.944 208.808 224.384 208.768C223.823 208.727 220.574 206.946 220.666 205.684L220.757 204.424Z" fill="#664B38"/>
<path d="M229.562 204.498C229.622 203.657 229.433 202.377 230.553 202.458C231.673 202.539 232.372 204.56 231.11 206.44C229.848 208.32 228.107 209.037 227.126 208.966C226.145 208.895 227.07 205.865 228.487 205.686C229.904 205.506 229.562 204.498 229.562 204.498Z" fill="#664B38"/>
<path d="M159.26 199.551C158.761 198.671 159.483 196.472 160.183 196.522C160.884 196.573 162.253 197.094 162.031 198.204C161.81 199.314 160.538 201.334 158.837 201.491C157.137 201.649 156.878 201.35 157.027 201.219C157.176 201.089 157.693 200.776 158.243 200.955C158.793 201.135 158.404 200.686 158.834 200.576C159.264 200.466 159.844 200.227 159.714 200.077L159.26 199.551Z" fill="#5A432C"/>
<path d="M161.686 196.138C161.116 196.238 160.266 196.317 160.167 195.747C160.067 195.177 160.838 194.247 161.375 194.568C161.913 194.889 161.686 196.138 161.686 196.138Z" fill="#5A432C"/>
<path d="M156.861 197.689C157.131 197.849 157.139 199.68 156.249 200.319C155.358 200.959 154.597 201.748 154.377 200.888C154.158 200.028 154.84 198.388 155.57 198.018C155.966 197.802 156.41 197.689 156.861 197.689Z" fill="#5A432C"/>
<path d="M152.941 197.405C152.19 198.055 151.059 198.114 150.891 196.554C150.723 194.994 151.074 194.033 152.043 194.244C153.013 194.456 153.342 195.745 153.301 196.305C153.256 196.692 153.133 197.066 152.941 197.405Z" fill="#5F422E"/>
<path d="M224.741 202.227C224.741 202.227 224.043 203.643 224.894 204.219C225.745 204.795 227.4 204.916 227.831 203.877C228.262 202.839 227.78 201.853 227.485 201.554C227.189 201.256 225.606 201.22 225.606 201.22L224.741 202.227Z" fill="#1E1916"/>
<path d="M155.611 195.005C155.611 195.005 155.049 197.026 156.457 197.286C157.865 197.546 158.688 197.13 158.863 196.35C159.038 195.57 158.981 194.716 158.053 194.39C157.126 194.063 155.924 194.235 155.924 194.235L155.611 195.005Z" fill="#1E1916"/>
<path d="M153.95 193.577C153.916 194.05 154.304 195.268 154.65 195.412C154.997 195.555 157.309 195.921 157.331 195.606C157.354 195.29 157.271 193.699 156.694 193.459C156.117 193.219 154.785 193.005 154.368 193.29L153.95 193.577Z" fill="#FFFEDA"/>
<path d="M223.448 200.663C223.448 200.663 223.397 201.918 223.918 202.377C224.439 202.837 226.732 202.922 226.732 202.922L226.878 200.911C226.878 200.911 225.751 200.593 225.397 200.567C225.043 200.541 223.448 200.663 223.448 200.663Z" fill="#FFFEDA"/>
<path opacity="0.21" d="M171.521 191.572C169.802 190.04 158.647 180.789 152.827 179.522C147.006 178.256 143.801 173.944 145.642 173.795C147.482 173.646 165.709 180.454 170.275 185.429C174.841 190.404 174.841 192.375 173.98 192.594C173.119 192.812 171.521 191.572 171.521 191.572Z" fill="#FFE5D9"/>
<path d="M221.726 198.02C224.576 197.522 230.147 198.347 230.218 197.367C230.288 196.387 228.83 195.156 225.138 195.593C221.446 196.03 221.726 198.02 221.726 198.02Z" fill="#E6A799"/>
<path opacity="0.46" d="M208.989 175.564C204.656 177.08 195.212 179.211 192.82 181.149C190.428 183.087 185.618 177.673 182.817 175.505C180.017 173.336 165.561 170.738 161.789 168.491C158.017 166.245 165.737 160.615 182.69 161.7C199.643 162.786 210.439 169.2 212.387 171.45C214.335 173.699 208.989 175.564 208.989 175.564Z" fill="#FFD6B1"/>
<path opacity="0.48" d="M184.931 237.721C182.52 237.969 177.898 239.605 176.357 239.494C174.816 239.382 172.257 237.789 171.127 237.849C169.997 237.908 178.806 219.263 180.979 216.468C183.152 213.673 184.809 222.861 184.475 227.488C184.14 232.115 184.988 234 186.143 235.49C187.297 236.98 184.931 237.721 184.931 237.721Z" fill="#EEA989"/>
<path opacity="0.57" d="M190.486 265.99C188.586 266.976 185.515 266.616 185.114 264.335C184.712 262.055 185.833 254.394 186.484 253.174C187.135 251.955 189.831 257.498 190.827 261.228C191.823 264.957 190.486 265.99 190.486 265.99Z" fill="#EBAD8C"/>
<path d="M187.649 305.193C184.127 307.185 178.485 307.345 176.588 304.393C174.69 301.441 176.407 293.262 179.109 292.894C181.81 292.527 188.499 293.433 188.796 297.113C189.093 300.793 187.649 305.193 187.649 305.193Z" fill="#FFC7A3"/>
<path opacity="0.34" d="M176.536 316.775C176.667 314.955 189.16 315.442 192.659 315.695C196.159 315.948 200.298 317.092 198.345 322.722C196.392 328.352 196.169 339.173 197.908 340.425C199.647 341.677 206.331 329.07 208.215 324.422C210.099 319.774 215.061 319.287 213.785 327.218C212.508 335.149 208.005 358.467 205.759 364.216C203.513 369.965 189.676 380.358 184.46 368.722C179.244 357.087 176.628 336.91 176.404 330.28C176.179 323.649 176.536 316.775 176.536 316.775Z" fill="#FFE0C7"/>
<path opacity="0.47" d="M178.191 192.759C179.489 194.259 182.885 203.794 182.894 201.684C182.903 199.574 182.157 186.571 174.66 181.242C167.163 175.912 152.071 174.404 155.471 176.055C158.87 177.707 169.771 185.604 172.579 187.637C175.388 189.67 178.191 192.759 178.191 192.759Z" fill="#DA9B70"/>
<path d="M221.399 367.874C216.838 368.667 213.179 366.716 216.017 358.622C218.855 350.528 225.629 336.659 227.309 336.781C228.989 336.902 223.14 357.449 224.077 360.051C225.015 362.652 227.674 364.814 226.832 366.724C225.989 368.634 221.399 367.874 221.399 367.874Z" fill="#F9C7AC"/>
<path d="M175.269 312.886C176.377 313.108 184.025 314.365 187.53 314.619C191.034 314.872 195.832 314.656 198.994 313.759C202.156 312.862 196.226 314.052 191.867 314.017C187.508 313.983 181.185 313.807 178.154 312.884C175.124 311.961 173.704 312.14 174.094 312.59C174.483 313.04 175.269 312.886 175.269 312.886Z" fill="#AF7656"/>
<path d="M132.456 176.251C132.456 176.251 141.946 172.182 146.495 172.828C151.045 173.474 163.861 178.204 172.014 181.65L180.166 185.093C180.166 185.093 178.496 177.492 177.721 175.073C176.946 172.654 153.17 166.02 148.288 165.667C143.405 165.314 131.022 174.245 131.022 174.245L132.456 176.251Z" fill="#825F4B"/>
<path opacity="0.44" d="M215.06 200.734C212.692 202.227 209.547 204.615 209.453 205.915C209.359 207.215 210.117 209.888 214.366 210.314C218.616 210.74 221.545 212.973 223.69 214.555C225.835 216.137 221.636 224.867 215.938 218.987C210.241 213.106 206.569 207.015 206.907 205.257C207.245 203.499 211.341 201.179 214.208 199.364C217.074 197.55 215.06 200.734 215.06 200.734Z" fill="#FFD1B8"/>
<path opacity="0.44" d="M172.676 196.597C175.082 197.841 176.804 200.344 176.53 202.463C176.257 204.583 173.95 206.914 169.715 209.584C165.48 212.255 161.472 205.183 164.362 204.68C167.253 204.176 173.496 204.984 173.75 203.1C174.005 201.216 171.954 199.165 170.414 197.865C168.874 196.566 172.676 196.597 172.676 196.597Z" fill="#FFD1B8"/>
<path d="M254.813 191.92C254.813 191.92 250.215 180.967 245.576 179.363C240.938 177.759 217.875 178.791 212.738 179.682C207.6 180.573 206.02 184.903 205.872 186.953C205.723 189.003 207.684 188.194 214.544 187.58C221.404 186.967 238.981 185.068 243.655 186.199C248.329 187.33 254.813 191.92 254.813 191.92Z" fill="#825F4B"/>
<path d="M255.108 163.726C255.108 163.726 249.21 188.309 254.099 201.824C258.988 215.339 255.652 230.387 254.097 245.469C252.541 260.551 240.086 283.742 235.238 289.414C230.39 295.086 230.462 302.843 231.272 309.171C232.083 315.499 244.387 336.044 244.387 336.044C244.387 336.044 265.392 275.746 267.4 247.993C269.408 220.239 255.108 163.726 255.108 163.726Z" fill="#0F0A02"/>
<path opacity="0.91" d="M144.155 301.212C144.155 301.212 164.183 349.78 163.922 362.876C163.661 375.972 162.256 385.899 162.256 385.899C162.256 385.899 118.392 366.24 119.51 350.792C120.628 335.344 144.155 301.212 144.155 301.212Z" fill="#0F0A02"/>
<path opacity="0.13" d="M212.447 275.718C212.447 275.718 209.836 286.943 200.814 290.412C191.792 293.881 175.73 292.4 170.638 288.228C165.546 284.057 166.076 276.802 166.076 276.802L212.447 275.718Z" fill="#AA785B"/>
<path d="M158.944 270.265C158.944 270.265 167.635 283.811 174.831 286.234C182.027 288.657 195.17 291.035 205.101 283.036C215.033 275.037 215.84 272.638 215.84 272.638C215.84 272.638 202.305 266.903 199.63 266.629C196.955 266.356 193.705 266.359 191.4 267.54C189.095 268.722 186.043 268.182 184.506 267.517C182.969 266.852 180.075 265.214 175.163 266.285C170.251 267.357 165.939 269.978 162.441 270.121L158.944 270.265Z" fill="#D56D6A"/>
<path opacity="0.57" d="M194.918 277.542C194.918 277.542 198.318 278.184 198.339 280.087C198.36 281.991 196.873 284.816 197.354 285.96C197.834 287.104 198.06 286.959 198.06 286.959C198.423 287.278 209.278 281.386 212.155 277.445C215.033 273.504 215.84 272.634 215.84 272.634C215.84 272.634 201.219 266.251 198.939 267.131C195.251 268.554 200.269 270.793 198.267 273.343C196.264 275.893 194.918 277.542 194.918 277.542Z" fill="#9B524A"/>
<path d="M188.976 276.398C187.106 276.594 185.219 276.563 183.355 276.308C180.255 275.887 176.161 274.957 176.161 274.957C176.161 274.957 180.562 275.472 181.445 275.339C182.327 275.206 184.835 275.584 185.978 275.667C187.122 275.75 188.976 276.398 188.976 276.398Z" fill="#86372D"/>
<path d="M174.118 274.72C174.118 274.72 171.005 273.909 169.575 273.409C168.144 272.908 164.124 272.063 162.652 271.601C161.18 271.139 159.047 270.466 158.986 270.226C158.925 269.986 159.698 270.238 160.405 270.606C161.113 270.974 161.686 271.254 163.449 271.54C165.212 271.826 169.794 273.123 171.766 273.806C173.737 274.489 174.118 274.72 174.118 274.72Z" fill="#86372D"/>
<path d="M214.983 272.99C214.372 273.223 205.737 275.907 203.621 276.111C201.505 276.315 198.284 276.755 196.326 276.97C194.368 277.185 191.924 276.731 191.731 276.637C191.538 276.544 195.309 276.481 196.297 276.532C197.284 276.584 200.538 275.689 202.597 275.443C204.656 275.196 209.481 273.959 210.641 273.547C211.8 273.135 214.983 272.99 214.983 272.99Z" fill="#86372D"/>
<path d="M168.844 197.693C168.844 197.693 162.822 192.555 155.444 192.286C148.066 192.017 145.285 193.929 142.851 195.443C140.417 196.957 139.374 197.411 137.765 197.084C136.156 196.758 134.601 195.534 134.601 195.534C134.601 195.534 137.082 196.295 137.992 195.404C138.901 194.514 142.386 190.914 149.479 190.744C156.572 190.573 160.325 192.004 162.229 192.722C164.134 193.44 168.844 197.693 168.844 197.693Z" fill="#221914"/>
<path d="M219.872 200.118C219.872 200.118 228.653 198.534 232.35 200.757C236.048 202.979 237.249 205.338 239.979 206.328C242.708 207.318 247.711 209 247.711 209C247.711 209 243.163 205.396 239.058 202.246C234.953 199.095 228.28 197.133 224.584 197.817C220.888 198.501 215.715 201.349 215.715 201.349L219.872 200.118Z" fill="#221914"/>
<path d="M190.243 251.763C191.002 251.501 194.398 249.104 196.119 247.96C197.839 246.816 199.471 246.196 200.991 246.41C202.511 246.625 200.457 247.957 199.334 248.14C198.211 248.324 193.965 250.764 192.823 251.209C191.681 251.655 190.243 251.763 190.243 251.763Z" fill="#542614"/>
<path opacity="0.73" d="M199.831 250.713C200.661 250.191 203.23 249.743 204.864 248.331C206.498 246.919 208.254 244.613 208.359 241.661C208.464 238.709 208.948 237.9 209.322 239.301C209.697 240.701 209.515 246.131 207.558 247.627C205.601 249.123 202.448 250.322 200.987 250.798C199.526 251.274 199.831 250.713 199.831 250.713Z" fill="#6F3D2B"/>
<path d="M179.456 246.015C178.502 246.051 176.501 245.96 176.176 245.355C175.85 244.75 176.514 244.325 177.144 244.37C177.775 244.416 179.738 245.049 180.033 245.353C180.328 245.658 179.456 246.015 179.456 246.015Z" fill="#994127"/>
<path opacity="0.53" d="M188.62 240.602C186.781 240.469 186.136 239.154 186.434 237.96C186.731 236.766 188.954 236.808 189.92 237.255C190.886 237.702 193.053 239.972 191.584 240.552C190.115 241.132 188.62 240.602 188.62 240.602Z" fill="#FFF1D1"/>
<path d="M86.6418 497.692L86.8759 497.907C90.6841 502.087 82.2651 493.605 86.6418 497.692Z" fill="#EFEBE8"/>
<path d="M85.4824 430.724C85.4824 430.724 91.8249 390.806 92.962 384.648C92.9988 384.451 93.0339 384.259 93.0701 384.068C93.226 383.226 93.4016 382.403 93.5971 381.599C94.9254 376.071 97.3614 370.87 100.758 366.311C103.77 362.259 107.268 359.043 110.703 356.523C113.545 354.444 116.579 352.642 119.764 351.14C123.843 349.212 126.711 348.462 126.711 348.462C126.711 348.462 131.986 351.465 139.262 356.419C152.207 365.23 171.463 380.198 178.483 395.32C178.766 395.929 179.044 396.537 179.316 397.144C185.067 409.955 188.616 422.432 190.63 430.962L190.625 431.032C190.782 431.695 190.929 432.335 191.066 432.945C191.288 433.933 191.487 434.848 191.661 435.692L191.662 435.677C192.47 439.554 192.827 441.908 192.854 442.084C192.854 442.084 192.907 441.729 193.017 441.065L193.022 440.997C193.184 440.036 193.475 438.408 193.912 436.286C194.08 435.464 194.272 434.564 194.481 433.603C194.825 432.052 195.231 430.327 195.699 428.47C196.11 426.837 196.574 425.103 197.088 423.291C199.283 415.577 202.441 406.489 206.801 398.082C210.086 391.746 214.056 385.798 218.816 381.113C219.383 380.553 219.952 379.996 220.525 379.442C226.119 374.003 231.895 368.722 237.282 363.957C237.344 363.904 237.406 363.848 237.466 363.794C238.654 362.744 239.821 361.721 240.967 360.725L241.652 360.13C243.716 358.339 245.692 356.648 247.542 355.082C247.916 354.764 248.285 354.452 248.65 354.145C249.319 353.581 249.968 353.036 250.598 352.509C252.337 351.055 253.919 349.743 255.31 348.606C259.134 345.468 261.468 343.63 261.468 343.63C261.468 343.63 267.549 345.974 274.671 350.261C284.977 356.458 293.675 367.105 296.896 379.795C326.885 497.854 199.149 572.611 199.149 572.611C199.149 572.611 70.6182 515.388 85.4824 430.724Z" fill="#F1F0EB"/>
<path d="M212.121 515.548C213.469 496.922 214.937 412.444 217.214 404.306C219.492 396.168 265.343 396.668 265.343 396.668L240.411 359.959C240.411 359.959 213.365 381.647 202.259 406.741C191.154 431.836 190.218 435.145 190.218 435.145C190.218 435.145 193.936 416.835 178.032 395.417C162.128 373.999 144.287 361.731 144.287 361.731C144.287 361.731 176.002 429.19 177.63 453.376C179.258 477.562 181.96 519.98 181.96 519.98L212.121 515.548Z" fill="#F4F4F2"/>
<path d="M246.599 325.622C246.599 325.622 234.368 402.909 238.459 422.42C242.55 441.931 255.618 459.298 268.666 473.343C281.713 487.388 295.349 495.712 295.349 495.712L246.599 325.622Z" fill="#5B4733"/>
<path opacity="0.53" d="M170.483 394.591C173.223 395.633 179.191 398.739 181.279 401.002C183.367 403.265 185.794 408.647 185.794 408.647C185.794 408.647 185.349 403.123 175.096 389.15C164.844 375.177 159.049 371.662 159.049 371.662C159.049 371.662 168.463 391.343 169.231 392.384C169.727 393.072 170.147 393.813 170.483 394.591Z" fill="#9D9992"/>
<path d="M268.496 473.361C254.803 459.128 247.082 445.882 241.259 425.856C239.448 419.633 239.613 409.336 240.699 398.105L240.744 397.633C241.664 388.379 243.186 378.521 244.741 369.796L244.751 369.662C244.91 368.765 245.07 367.881 245.23 367.01C246.039 362.6 246.841 358.542 247.551 355.082C247.918 353.296 248.261 351.67 248.568 350.235C249.372 346.485 249.935 344.052 250.058 343.529C250.074 343.459 250.082 343.424 250.082 343.424L250.087 343.496C250.103 343.786 250.188 345.236 250.611 352.508C250.757 355.127 250.945 358.503 251.187 362.852C251.475 368.009 252.82 374.297 254.635 380.748L254.769 381.217L254.772 381.168C256.313 386.435 258.166 391.796 260.012 396.734C264.376 408.416 268.699 417.719 268.699 417.719C268.699 417.719 268.816 417.997 269.013 418.557C270.053 421.429 273.337 431.747 274.477 450.377C274.921 457.641 277.508 470.193 280.797 483.802L280.803 483.716C281.064 484.801 281.33 485.893 281.601 486.991L268.496 473.361ZM339.738 477.854C339.564 474.989 339.163 472.143 338.538 469.342C338.237 467.979 337.843 466.638 337.358 465.328C335.064 459.086 330.862 453.486 326.214 448.261C319.688 440.924 312.278 434.327 308.018 427.722C306.362 425.159 305.181 422.595 304.708 419.994C304.436 418.503 304.316 416.989 304.35 415.474C304.661 403.007 315.977 394.362 324.583 377.381C325.734 375.112 326.662 372.736 327.354 370.288C332.485 352.244 325.558 329.269 309.093 302.386C290.401 271.844 294.905 266.538 294.226 214.522C293.547 162.506 265.718 113.582 246.995 91.946C228.271 70.3103 208.167 79.946 208.167 79.946C208.167 79.946 201.098 73.7301 172.943 77.3973C144.788 81.0644 134.676 106.957 107.35 164.869C94.6716 191.727 86.6582 223.115 82.1405 249.702C76.92 280.446 76.4081 304.773 78.8307 308.262C81.0715 311.488 88.0316 317.394 91.0814 328.071C92.4773 332.931 93.0526 338.783 92.0153 345.82C91.4048 349.963 90.2314 354.516 88.3302 359.52C86.2468 365.006 83.2878 371.034 79.236 377.656C77.8968 379.844 76.6167 381.939 75.3958 383.941C75.3164 384.072 75.2384 384.202 75.1592 384.33C75.0514 384.508 74.9435 384.689 74.8374 384.861C74.7426 385.015 74.6491 385.169 74.5543 385.324L73.4959 387.063L73.102 387.711C73.082 387.746 73.0594 387.782 73.0382 387.816L72.7136 388.352C71.2763 390.722 69.9278 392.964 68.668 395.078C68.5602 395.256 68.4548 395.437 68.3497 395.612C68.3457 395.617 68.3424 395.622 68.3398 395.628C68.2317 395.812 68.1236 395.994 68.0158 396.173C67.7188 396.672 67.4299 397.163 67.1439 397.648C66.9078 398.047 66.6753 398.442 66.4464 398.833C66.2627 399.147 66.0806 399.456 65.9023 399.763C65.7827 399.967 65.6656 400.171 65.5474 400.372C65.4292 400.573 65.3121 400.777 65.1965 400.978L64.9956 401.322L64.6041 402.005C64.5729 402.058 64.5416 402.11 64.5115 402.164C64.437 402.296 64.3602 402.425 64.2871 402.556C64.1345 402.818 63.987 403.081 63.8397 403.34L63.4765 403.977L62.9552 404.901C62.8705 405.054 62.7847 405.206 62.7001 405.357C62.6155 405.508 62.5322 405.658 62.4477 405.808C62.3632 405.958 62.2825 406.107 62.1994 406.256C61.6133 407.316 61.0557 408.342 60.5262 409.333L60.3366 409.693C59.9708 410.385 59.62 411.057 59.2826 411.718C59.2157 411.849 59.1475 411.98 59.0819 412.112C57.6682 414.896 56.5017 417.424 55.5597 419.78C55.5203 419.877 55.4821 419.973 55.4439 420.069C55.3765 420.241 55.3092 420.413 55.2432 420.584C55.2015 420.693 55.16 420.801 55.1199 420.908C55.0458 421.104 54.9743 421.298 54.903 421.49C54.8672 421.588 54.8314 421.686 54.7969 421.782L54.67 422.139C54.653 422.184 54.6387 422.228 54.6228 422.274C54.5816 422.396 54.541 422.508 54.5013 422.625C54.4697 422.717 54.438 422.81 54.4075 422.902C54.3771 422.995 54.3521 423.066 54.3263 423.146C54.3005 423.227 54.2701 423.318 54.2414 423.405C54.2126 423.491 54.1949 423.546 54.1736 423.617C53.9896 424.193 53.8214 424.759 53.6671 425.32L53.6321 425.443L53.5893 425.603C53.5379 425.795 53.4866 425.988 53.4377 426.18C53.4202 426.249 53.4026 426.32 53.3865 426.387C53.2972 426.741 53.2105 427.093 53.1391 427.443C53.1114 427.566 53.0851 427.688 53.06 427.812C53.0348 427.934 53.0048 428.073 52.9791 428.205C52.9533 428.337 52.93 428.451 52.9074 428.574C52.8892 428.67 52.8697 428.768 52.8539 428.865C52.8432 428.927 52.8312 428.988 52.8205 429.05L52.7812 429.284C52.7597 429.407 52.7378 429.538 52.7185 429.667C52.7153 429.711 52.706 429.753 52.6996 429.79C52.6986 429.804 52.6976 429.817 52.6966 429.831C52.6924 429.889 52.6777 429.954 52.6701 430.008C52.6392 430.21 52.6121 430.413 52.5862 430.616C52.5807 430.691 52.5652 430.768 52.5571 430.844C52.5329 431.041 52.5112 431.238 52.4895 431.434C52.4798 431.568 52.4626 431.701 52.4505 431.835C52.4439 431.926 52.4372 432.018 52.4307 432.108C52.2802 433.908 52.2592 435.715 52.3677 437.517C53.0699 449.861 59.1824 464.772 65.5078 500.395C66.9408 508.469 58.295 521.668 50.0413 532.104C43.0741 540.907 36.3857 547.738 36.2805 547.846C36.4302 547.761 47.5346 541.455 61.0943 533.546L62.0731 532.974C77.0696 524.218 94.7775 513.669 103.993 507.416L104.136 507.319C104.827 506.849 105.466 506.406 106.055 505.987C106.534 505.647 106.977 505.324 107.381 505.022C107.784 504.721 108.118 504.463 108.429 504.213C116.798 497.505 116.178 483.95 115.607 472.445C116.388 470.402 117.275 468.401 118.266 466.451C120.523 462.008 128.246 456.58 137.579 445.846C142.245 440.478 147.511 433.432 151.614 425.974C153.78 422.041 155.624 417.992 156.885 414.017C158.016 410.457 158.683 406.952 158.698 403.642C158.7 402.934 158.665 402.226 158.592 401.522C157.698 392.835 151.295 384.827 145.966 377.452C143.237 373.672 140.789 370.059 139.511 366.602C138.097 362.778 138.262 359.58 139.267 356.44C141.084 350.756 145.65 345.265 148.576 336.598C150.46 331.009 150.907 324.331 150.756 317.902C150.648 313.328 150.237 308.877 149.825 305.043C149.423 301.29 149.019 298.119 148.899 295.98C148.891 295.841 148.88 295.697 148.864 295.55C148.582 292.776 147.062 288.96 145.057 284.885C144.637 284.03 144.195 283.165 143.739 282.293C143.641 282.106 143.543 281.919 143.444 281.732C143.444 281.732 143.444 281.732 143.445 281.726C140.206 275.618 136.341 269.37 134.235 265.446C134.051 265.096 133.887 264.735 133.743 264.367C132.271 260.66 131.057 253.176 130.128 244.41C129.77 241.036 129.454 237.472 129.18 233.856C128.39 223.451 127.956 212.649 127.908 204.852C127.787 186.542 134.624 178.002 138.808 169.385C142.992 160.768 151.196 139.513 152.365 133.179C153.535 126.845 160.993 119.074 167.315 113.821C173.637 108.568 189.463 109.958 206.961 111.224C224.459 112.49 235.613 122.565 240.048 130.254C244.484 137.943 245.904 151.117 249.496 160.645C253.088 170.173 251.983 186.381 255.881 197.234C259.78 208.087 259.657 223.889 257.892 231.842C256.127 239.795 248.421 264.193 246.017 271.15C246.017 271.15 245.071 276.074 244.237 281.531C243.736 284.8 243.273 288.264 243.076 290.981C242.552 298.231 244.606 318.028 244.606 318.028L243.551 323.272C242.966 326.178 242.058 330.69 240.647 337.706C240.549 338.188 240.451 338.69 240.359 339.193C240.179 340.162 240.004 341.176 239.833 342.236C238.923 347.912 238.156 354.811 237.56 362.418C237.527 362.879 237.493 363.343 237.453 363.809C236.664 374.377 236.194 386.217 236.103 398C236.09 399.794 236.085 401.583 236.089 403.366C236.11 412.376 236.361 421.236 236.867 429.326C238.652 457.925 276.852 484.131 281.744 487.376C282.788 491.613 290.629 497.42 294.061 501.312C294.359 501.649 294.625 501.977 294.849 502.278C296.655 504.745 300.579 511.88 301.051 512.946C302.594 516.415 303.783 520.031 304.601 523.739C306.749 533.45 306.194 542.776 304.728 550.518C302.482 562.376 298.098 570.527 298.013 570.682C298.121 570.53 304.442 561.419 312.187 551.058C313.285 549.59 314.41 548.098 315.551 546.602C321.3 539.06 327.431 531.437 332.197 526.539C342.836 515.607 334.113 500.06 334.113 500.06C334.113 500.06 340.594 492.742 339.738 477.854Z" fill="#5B4733"/>
<path d="M304.627 516.27C303.687 515.453 302.508 514.369 301.124 513.076C300.467 512.46 299.766 511.799 299.021 511.092C296.853 509.029 294.341 506.593 291.605 503.905C275.427 488.006 251.459 463.228 245.011 454.198C240.705 448.159 233.433 428.77 234.096 405.629C234.154 403.606 234.275 401.556 234.459 399.479C234.499 399.037 234.539 398.593 234.578 398.147C235.568 386.89 236.375 374.598 237.251 363.898C237.285 363.426 237.323 362.958 237.366 362.492C238.214 352.327 239.133 343.743 240.344 339.084L240.343 339.101C240.48 338.577 240.62 338.102 240.764 337.679C243.638 329.253 243.809 345.472 241.88 358.496C241.792 359.089 241.709 359.652 241.633 360.185C241.565 360.652 241.503 361.095 241.445 361.519C240.094 371.231 240.933 369.514 242.75 364.079C242.8 363.93 242.849 363.789 242.897 363.658C244.017 360.582 244.764 361.777 244.808 366.471C244.816 367.423 244.797 368.52 244.745 369.752L244.754 369.627C244.633 372.527 244.336 376.189 243.825 380.531C243.224 385.645 242.498 391.169 241.872 396.636L241.779 397.46C240.546 408.432 239.773 419.126 241.318 425.885C243.669 436.192 257.207 453.551 279.234 481.703C279.81 482.44 280.375 483.163 280.928 483.871L280.925 483.91C286.533 491.108 290.87 496.831 294.204 501.333C296.574 504.534 298.438 507.119 299.891 509.18C303.571 514.407 304.627 516.27 304.627 516.27Z" fill="#EFD6AF"/>
<path opacity="0.22" d="M332.248 488.42C332.572 483.94 332.508 477.039 327.791 472.193C323.073 467.347 320.621 465.271 320.621 465.271C307.515 457.707 268.929 422.961 261.722 407.807C254.514 392.654 244.69 349.433 250.048 343.487C250.186 343.334 250.34 343.194 250.506 343.071C254.6 348.906 261.185 354.079 268.115 358.265C265.067 369.903 273.165 409.639 293.305 427.474C314.069 445.866 339.463 460.653 340.185 472.105C340.907 483.557 331.923 492.9 332.248 488.42Z" fill="#9E8A6F"/>
<path d="M326.399 504.112C320.371 499.875 287.933 467.691 283.034 455.654C278.134 443.618 288.695 455.22 295.479 462.608C302.263 469.995 324.145 496.349 326.855 497.812C329.564 499.275 326.399 504.112 326.399 504.112Z" fill="#B89E79"/>
<path d="M316.865 351.841C313.699 346.967 299.114 326.77 293.397 312.423C287.679 298.075 295.436 313.415 297.164 316.777C298.891 320.139 311.342 342.579 314.66 347.312C317.977 352.046 316.865 351.841 316.865 351.841Z" fill="#D9C8AB"/>
<path opacity="0.31" d="M155.64 126.412C161.06 119.698 170.126 113.671 176.258 110.936C184.821 107.117 196.366 105.82 198.412 103.828C200.459 101.835 197.52 99.7214 197.845 95.2276C198.17 90.7338 203.124 87.9955 203.329 85.1619C203.534 82.3283 193.602 78.2769 181.23 81.6618C168.858 85.0468 177.528 83.5334 182.461 84.3721C187.393 85.2109 173.404 84.668 171.272 87.8427C169.14 91.0174 182.136 88.8659 184.45 89.7473C186.764 90.6288 182.387 91.9697 176.336 93.4391C170.285 94.9086 173.495 96.5625 178.462 96.9219C183.429 97.2813 177.653 94.9611 168.421 100.951C159.19 106.941 154.202 110.146 151.83 116.631C149.458 123.117 155.64 126.412 155.64 126.412Z" fill="#1C150D"/>
<path d="M105.898 293.263C105.416 292.506 104.999 291.71 104.649 290.883C103.698 288.499 104.515 289.997 105.898 293.263Z" fill="#74583E"/>
<path d="M116.767 321.908C116.242 324.254 115.274 326.722 113.998 329.223C111.905 333.329 108.985 337.532 105.854 341.459C104.497 343.16 103.101 344.809 101.714 346.375C96.9075 351.805 92.2192 356.251 89.718 358.454C89.5848 358.57 89.4455 358.684 89.3061 358.799C89.1667 358.914 89.0038 359.027 88.847 359.14C88.6902 359.254 88.5074 359.365 88.2602 359.521C85.283 361.384 75.1022 367.124 66.5286 371.75C60.6325 374.93 55.4959 377.584 53.9812 378.091C51.3741 378.962 66.6805 363.94 75.1207 353.584C75.3372 353.317 75.5497 353.056 75.7569 352.796C78.1385 349.814 80.2948 345.288 81.682 340.176C83.3481 334.023 83.8947 327.02 82.3615 320.831C79.1477 307.867 72.3812 304.132 73.0381 285.323C73.3094 277.571 77.5445 262.914 82.0723 249.661C88.5292 230.744 95.5825 214.694 92.5558 225.643C87.4069 244.27 93.2388 286.212 95.8623 294.706C98.4858 303.2 103.306 324.097 105.401 320.448C107.495 316.798 102.849 299.293 106.235 305.03C106.551 305.573 106.837 306.133 107.093 306.706C109.855 312.848 111.038 322.653 111.837 315.147C112.265 311.127 109.942 303.712 107.754 297.926C107.096 296.188 106.451 294.596 105.896 293.288C106.464 294.211 107.142 295.195 107.879 296.238C112.391 302.626 119.146 311.249 116.767 321.908Z" fill="#74583E"/>
<path d="M268.366 263.463C271.573 256.094 278.068 242.209 275.408 230.334C272.748 218.46 267.264 208.633 264.112 201.649C260.959 194.666 261.009 193.965 261.009 193.965C261.009 193.965 266.066 214.527 267.231 219.819C268.396 225.111 267.865 242.103 263.281 251.061C258.697 260.018 268.348 245.235 269.504 238.985C270.66 232.735 272.472 240.748 270.996 247.537C269.52 254.327 268.366 263.463 268.366 263.463Z" fill="#3E2A1D"/>
<path d="M260.008 303.111C259.472 296.88 266.302 278.373 269.637 273.125C272.973 267.877 272.63 270.668 276.068 262.049C279.507 253.431 271.673 287.769 275.164 299.845C278.654 311.92 289.226 333.092 291.014 335.616C292.803 338.139 272.025 319.887 269.88 312.551C267.736 305.215 264.074 318.886 270.358 327.363C276.641 335.84 280.547 340.208 278.638 339.364C276.729 338.519 263.322 321.504 260.793 313.583C258.264 305.661 260.008 303.111 260.008 303.111Z" fill="#3E2A1D"/>
<path d="M290.402 262.383C290.098 266.583 293.647 291.47 298.609 300.696C303.571 309.923 309.782 321.351 310.591 323.801C311.4 326.251 302.091 310.941 295.606 303.294C289.121 295.646 287.024 281.842 287.538 276.672C288.052 271.502 290.402 262.383 290.402 262.383Z" fill="#3E2A1D"/>
<path d="M111.667 234.813C112.842 239.965 118.806 270.374 123.369 279.29C127.931 288.205 114.616 267.96 112.771 262.337C110.926 256.714 111.667 234.813 111.667 234.813Z" fill="#3E2A1D"/>
<path d="M127.095 137.689C129.302 130.53 137.147 115.475 141.194 108.168C145.242 100.86 127.221 122.358 123.16 133.742C119.098 145.126 115.116 157.375 114.423 161.121C113.73 164.867 127.095 137.689 127.095 137.689Z" fill="#3E2A1D"/>
<path opacity="0.08" d="M109.418 396.224C106.779 402.302 85.7319 412.697 85.1653 416.284C84.3921 421.173 84.6675 426.062 85.4204 430.717C87.1968 441.705 91.633 451.388 91.2488 456.697C90.9321 461.074 86.926 456.456 83.1786 450.176C81.4366 447.26 79.8854 444.235 78.5349 441.118C80.4021 447.573 82.5084 456.471 79.2012 452.026C73.556 444.439 56.7431 421.97 61.4173 429.346C66.0916 436.722 71.2216 449.478 67.4545 456.806C63.968 463.586 57.6382 447.64 52.2781 437.528C51.4694 423.344 57.8041 412.551 79.1639 377.634C83.2172 371.008 86.1811 364.981 88.2626 359.488C85.2854 361.35 75.1046 367.089 66.5311 371.715C69.9731 364.498 72.9506 358.231 75.123 353.55C76.1169 351.408 76.9421 349.596 77.569 348.178C79.3266 344.193 80.6643 341.629 81.6844 340.142C86.1103 333.664 84.3654 347.617 83.9452 353.425C83.5049 359.509 87.6635 349.996 91.953 345.783C92.7014 345.049 93.4532 344.475 94.1854 344.172C97.6776 342.731 91.8358 351.337 89.3107 358.77C88.2674 361.836 87.7904 364.702 88.7641 366.581C90.83 370.568 96.8775 367.332 100.698 366.301C103.045 365.667 104.553 365.865 103.786 369.075C102.501 374.443 96.2289 378.71 93.5389 381.589C92.3091 382.905 91.8268 383.93 92.9027 384.639C93.2552 384.855 93.6382 385.017 94.0388 385.119C100.654 387.005 112.796 388.446 109.418 396.224Z" fill="#C7A87F"/>
<path d="M143.868 101.039C146.942 97.4608 158.576 84.5036 172.493 80.8722C186.41 77.2408 182.237 78.4817 170.198 85.3508C158.159 92.2198 147.861 98.3723 143.655 103.98C139.45 109.587 143.868 101.039 143.868 101.039Z" fill="#3E2A1D"/>
<path d="M173.58 279.722C175.324 281.596 176.458 285.638 182.9 286.421C189.342 287.204 194.539 285.515 194.077 284.218C193.616 282.92 191.944 283.032 192.757 281.666C193.569 280.299 188.911 280.039 188.109 281.249C187.308 282.46 182.978 282.066 181.244 280.833C179.509 279.599 173.58 279.722 173.58 279.722Z" fill="#E69A99"/>
<path opacity="0.41" d="M243.999 203.343C243.386 201.951 241.414 197.45 234.55 195.919C227.686 194.389 222.126 194.545 219.004 196.063C215.883 197.581 212.681 200.201 211.322 201.451C209.963 202.701 214.604 197.725 216.334 196.821C218.065 195.916 224.578 193.613 228.14 194.108C231.702 194.602 233.437 194.808 235.83 195.695C238.222 196.582 242.189 199.246 243.147 200.82C244.105 202.395 244.764 203.672 244.906 204.435C245.048 205.198 243.999 203.343 243.999 203.343Z" fill="#8D523D"/>
<path opacity="0.44" d="M139.15 193.299C139.15 193.299 140.331 190.651 142.264 189.681C144.196 188.711 149.68 186.335 154.546 187.004C159.412 187.673 163.213 188.819 165.652 191.809C168.09 194.799 169.112 196.023 169.086 195.822C169.061 195.622 166.621 192.098 164.824 190.64C163.027 189.181 160.207 187.631 157.412 187.091C154.617 186.552 152.978 186.493 150.312 186.875C147.647 187.256 144.337 188.107 143.041 188.766C141.745 189.425 140.095 190.871 139.596 191.747C139.097 192.624 139.15 193.299 139.15 193.299Z" fill="#8D523D"/>
<path d="M114.155 170.647C121.719 153.758 141.644 119.376 149.157 107.556C156.669 95.7356 145.232 113.613 147.947 124.27C150.663 134.928 148.782 147.797 138.514 167.026C128.246 186.254 114.708 206.827 117.581 219.715C120.453 232.602 128.859 278.548 128.859 278.548C128.859 278.548 127.117 242.598 126.205 230.485C125.292 218.373 125.203 210.757 125.203 210.757C125.203 210.757 135.358 267.605 135.477 283.465C135.597 299.325 135.503 305.024 131.688 313.942C127.873 322.86 132.468 298.781 125.865 280.55C119.263 262.319 107.707 224.708 108.757 210.201C109.807 195.694 114.155 170.647 114.155 170.647Z" fill="#725D44"/>
<path opacity="0.55" d="M112.076 374.659C105.571 368.166 98.709 357.839 101.354 347.571C104 337.302 116.852 326.183 124.27 320.063C131.689 313.943 131.873 328.851 125.067 335.338C118.262 341.824 110.387 349.81 111.124 357.154C111.861 364.498 112.076 374.659 112.076 374.659Z" fill="#C8AF8E"/>
<path opacity="0.68" d="M120.561 384.467C126.01 388.032 139.275 393.112 145.913 402.154L152.551 411.193C152.551 411.193 146.322 392.039 138.649 388.631C130.975 385.222 123.829 383.12 120.766 381.63C117.703 380.14 120.561 384.467 120.561 384.467Z" fill="#E2BD8D"/>
<path opacity="0.61" d="M243.905 121.384C249.282 130.333 264.058 158.349 269.569 191.719C275.08 225.089 278.61 233.268 275.536 245.094C272.463 256.919 262.85 271.439 258.851 282.879C254.853 294.32 252.007 302.991 253.302 315.765C254.597 328.54 252.294 334.08 262.671 344.029C273.047 353.978 290.77 363.184 303.606 369.813C316.442 376.442 284.737 358.937 277.257 352.689C269.777 346.441 259.144 340.109 256.22 327.938C253.296 315.767 253.923 304.875 257.846 292.319C262.12 278.649 276.276 253.269 278.46 244.038C282.459 227.129 275.381 212.111 274.196 202.199C273.011 192.288 267.208 163.013 261.406 151.184C255.605 139.356 243.905 121.384 243.905 121.384Z" fill="#C6B08B"/>
<path opacity="0.58" d="M252.393 275.757C256.798 263.076 264.101 258.533 265.782 244.072L267.462 229.61C267.462 229.61 268.589 253.468 260.98 270.988C253.371 288.508 250.906 300.693 251.323 312.454L251.74 324.217C251.74 324.217 249.158 289.788 249.5 285.055C249.843 280.322 252.393 275.757 252.393 275.757Z" fill="#DBB188"/>
<path opacity="0.29" d="M130.77 295.964C130.77 295.964 132.648 287.539 131.569 284.926C130.49 282.313 122.668 261.139 121.177 253.263C119.686 245.388 120.766 258.941 122.461 266.197C124.155 273.453 130.77 295.964 130.77 295.964Z" fill="#EFD6AF"/>
<path d="M121.193 155.7C126.482 146.794 140.327 122.743 144.042 118.085C147.757 113.427 137.491 128.871 135.184 135.46C132.877 142.048 137.033 137.142 140.58 130.925C144.127 124.707 139.764 136.358 137.474 142.807C135.183 149.257 127.419 166.992 131.103 162.755C134.788 158.518 146.688 139.955 148.336 130.785C149.985 121.616 144.306 153.431 137.629 163.926C130.953 174.421 120.057 194.745 125.291 180.768C130.525 166.791 123.777 172.495 120.78 180.863C117.783 189.232 117.026 184.11 119.845 174.321C122.665 164.532 120.23 169 116.222 177.719C112.213 186.437 121.193 155.7 121.193 155.7Z" fill="#B59C7B"/>
<path d="M193.572 505.479C194.466 500.899 194.442 495.408 194.433 493.577C194.425 491.747 201.089 490.473 201.945 488.669C202.801 486.865 203.657 480.875 199.487 480.15C195.316 479.425 194.634 481.066 194.634 481.066L193.959 472.995C193.959 472.995 202.112 471.192 203.005 468.583C203.898 465.974 201.632 460.32 198.832 460.118C196.031 459.915 194.057 463.854 194.057 463.854C194.057 463.854 193.411 459.163 193.674 455.522C193.938 451.881 201.667 452.019 202.502 450.249C203.336 448.48 201.618 443.008 199.237 442.836C196.856 442.663 195.386 446.131 195.386 446.131L193.353 446.35C193.353 446.35 192.252 436.278 193.674 434.129C195.097 431.98 203.224 436.368 204.176 434.889C205.128 433.41 205.831 427.549 203.524 426.397C201.216 425.245 199.066 426.515 198.077 428.125C197.088 429.735 195.199 428.611 197.502 425.962C199.805 423.312 203.739 419.516 203.739 419.516C203.739 419.516 207.608 422.47 208.829 421.15C210.05 419.831 208.68 416.147 209.379 413.908C210.078 411.67 216.219 412.397 217.109 411.758C218 411.118 219.983 409.01 218.865 406.958C218.526 406.351 218.068 405.819 217.518 405.393C216.968 404.967 216.339 404.657 215.666 404.48C215.666 404.48 206.313 411.262 203.193 415.4C200.074 419.538 194.846 425.045 193.506 430.238C192.167 435.431 190.716 436.028 191.375 440.583C192.034 445.138 191.807 448.215 191.807 448.215C191.807 448.215 193.711 461.793 193.42 463.883C193.129 465.972 193.664 470.234 193.198 476.675L192.55 485.635L193.572 505.479Z" fill="#B3B7B4"/>
<path d="M190.363 487.513C190.444 486.395 191.785 483.394 193.398 482.525C195.011 481.655 198.411 481.34 200.059 483.852C201.707 486.364 202.254 488.514 201.693 490.444C201.131 492.375 199.388 495.062 197.408 495.201C195.428 495.34 191.389 492.794 190.78 491.485C190.17 490.175 190.363 487.513 190.363 487.513Z" fill="#EAE8E4"/>
<path d="M190.111 467.65C190.383 465.84 191.995 463.001 193.846 462.713C195.697 462.425 199.361 462.408 200.385 465.719C201.408 469.029 201.189 472.11 199.548 473.397C197.907 474.684 193.284 476.321 191.865 474.53C190.447 472.739 190.158 470.888 189.954 469.888C189.751 468.889 190.111 467.65 190.111 467.65Z" fill="#EAE8E4"/>
<path d="M191.03 447.167C192.248 445.849 196.01 443.389 198.655 445.298C201.299 447.207 202.387 451.649 200.394 453.898C198.401 456.146 195.98 456.534 193.661 455.521C191.341 454.508 189.953 452.297 189.924 450.747C189.895 449.197 191.03 447.167 191.03 447.167Z" fill="#EAE8E4"/>
<path d="M202.041 436.986C200.832 438.166 195.317 438.471 193.919 436.399C192.521 434.327 192.784 430.687 193.996 429.508C195.207 428.329 197.498 427.792 199.178 427.913C200.858 428.035 202.478 428.996 203.156 431.297C203.835 433.597 203.553 435.548 203.232 436.088C202.91 436.627 202.041 436.986 202.041 436.986Z" fill="#EAE8E4"/>
<path d="M205.274 423.427C203.674 424.157 201.232 424.824 199.79 423.313C198.348 421.802 200.324 417.859 203.667 416.415C207.01 414.97 207.819 415.448 207.926 417.846C208.034 420.244 207.473 422.182 206.883 422.556C206.293 422.931 205.274 423.427 205.274 423.427Z" fill="#EAE8E4"/>
<path d="M214.336 412.964C213.138 414.001 209.714 414.6 208.254 413.369C206.794 412.137 206.655 412.13 206.655 412.13C206.655 412.13 210.889 408.067 212.07 407.314C213.25 406.561 216.192 406.157 216.431 408.028C216.67 409.899 216.117 411.689 215.657 412.216C215.197 412.743 214.336 412.964 214.336 412.964Z" fill="#EAE8E4"/>
<path d="M197.209 482.378C198.859 482.92 201.456 485.924 201.044 487.722C200.631 489.521 199.044 488.141 198.076 485.96C197.107 483.779 195.297 483.512 195.197 482.937C195.098 482.362 197.209 482.378 197.209 482.378Z" fill="#F1F0EB"/>
<path d="M194.822 462.784C195.95 462.724 198.764 462.787 199.82 465.678C200.877 468.569 200.518 469.67 199.328 468.598C198.139 467.526 197.891 465.116 196.801 464.616C195.712 464.115 194.822 462.784 194.822 462.784Z" fill="#F1F0EB"/>
<path d="M195.011 444.641C195.852 444.701 199.943 444.576 200.57 447.577C201.197 450.578 199.437 451.576 199.127 450.005C198.818 448.433 197.991 446.264 196.731 446.173C195.47 446.082 193.91 446.25 193.951 445.69C193.991 445.13 195.011 444.641 195.011 444.641Z" fill="#F1F0EB"/>
<path d="M197.325 428.201C198.186 427.981 201.556 428.085 202.524 430.266C203.492 432.447 203.03 434.947 202.2 434.746C201.369 434.545 201.132 431.995 201.064 431.004C200.996 430.013 199.194 429.603 198.214 429.532C197.235 429.461 197.325 428.201 197.325 428.201Z" fill="#F1F0EB"/>
<path d="M204.68 416.066C205.839 415.587 208.003 414.899 207.929 417.849C207.856 420.799 207.476 422.185 206.676 421.558C205.876 420.931 205.862 417.278 205.451 417.101C205.039 416.923 204.68 416.066 204.68 416.066Z" fill="#F1F0EB"/>
<path d="M212.211 407.322C212.211 407.322 213.4 406.422 214.497 406.783C215.594 407.145 216.977 407.526 216.186 408.735C215.394 409.945 213.213 410.913 213.154 409.783C213.095 408.653 212.585 407.912 212.168 407.882C211.751 407.851 212.211 407.322 212.211 407.322Z" fill="#F1F0EB"/>
<path d="M209.959 409.27C210.358 409.581 211.138 410.478 210.687 410.87C210.235 411.262 208.557 411.139 208.431 410.989C208.306 410.839 208.442 410.849 208.442 410.849L209.959 409.27Z" fill="white"/>
<path d="M194.953 488.268C196.01 489.188 196.571 491.2 195.69 491.699C194.808 492.198 193.309 491.527 193.172 489.546C193.034 487.565 194.953 488.268 194.953 488.268Z" fill="white"/>
<path d="M194.171 467.944C195.279 468.164 196.315 469.366 196.379 470.497C196.444 471.627 194.717 472.065 193.968 470.744C193.22 469.423 194.171 467.944 194.171 467.944Z" fill="white"/>
<path d="M193.128 449.29C193.588 448.761 194.449 448.541 195.088 449.432C195.728 450.323 195.866 452.303 194.896 452.092C193.926 451.881 192.671 451.79 192.466 450.649C192.262 449.508 193.128 449.29 193.128 449.29Z" fill="white"/>
<path d="M196.226 431.78C196.676 431.39 197.696 430.901 198.145 432.483C198.593 434.064 197.902 435.843 196.825 435.202C195.747 434.561 195.537 433.56 195.577 433C195.618 432.44 196.226 431.78 196.226 431.78Z" fill="white"/>
<path d="M202.138 418.134C203.099 418.485 203.548 420.066 202.526 420.555C201.505 421.044 200.756 419.723 200.817 418.882C200.878 418.042 202.138 418.134 202.138 418.134Z" fill="white"/>
<path opacity="0.7" d="M168.823 197.709C170.304 198.66 172.023 200.187 172.651 201.223C173.279 202.258 171.841 202.713 170.86 202.642C169.879 202.571 167.909 202.568 166.789 202.487C165.669 202.406 168.646 201.144 169.137 200.194C169.627 199.245 168.823 197.709 168.823 197.709Z" fill="#D89C84"/>
<path opacity="0.7" d="M213.974 207.874C212.454 207.482 210.664 206.93 210.285 206.34C209.906 205.75 211.857 204.061 213.188 203.172C214.519 202.284 212.858 203.853 212.946 204.562C213.035 205.271 213.495 206.713 214.025 207.174C214.554 207.634 213.974 207.874 213.974 207.874Z" fill="#DCA08A"/>
<path d="M211.776 205.186C212.186 205.357 212.696 206.097 212.965 206.258C213.234 206.418 213.545 206.018 213.425 205.728C213.305 205.439 213.985 205.769 213.877 205.338C213.768 204.907 212.926 204.847 212.366 204.807C211.806 204.766 211.537 204.606 211.655 204.896L211.776 205.186Z" fill="#FFF1DE"/>
<path d="M169.88 202.573C169.46 202.542 168.34 202.461 168.21 202.311C168.079 202.16 168.441 201.06 168.911 200.391C169.382 199.721 169.532 199.592 169.652 199.881C169.773 200.171 169.226 200.906 169.356 201.057C169.487 201.207 169.786 200.947 170.045 201.246C170.305 201.546 169.445 201.766 169.585 201.776C169.705 201.804 169.815 201.86 169.908 201.941C170 202.021 170.071 202.123 170.115 202.238C170.235 202.527 169.88 202.573 169.88 202.573Z" fill="#FFF1DE"/>
<path opacity="0.18" d="M292.128 368.756C281.478 366.157 255.303 354.411 248.116 338.971C240.928 323.531 243.034 294.417 245.407 283.041C247.779 271.666 254.329 260.886 259.534 245.359C264.739 229.832 266.649 258.892 263.805 272.901C260.961 286.91 241.668 318.167 261.122 329.427C280.576 340.687 305.68 358.478 310.265 365.143C314.85 371.809 314.717 392.136 305.744 403.31C296.772 414.484 300.027 398.674 302.778 387.895C305.529 377.116 301.465 374.992 299.07 372.988C296.676 370.985 292.128 368.756 292.128 368.756Z" fill="#A08B6B"/>
</g>
<rect x="1" y="1" width="389" height="539" rx="185" stroke="#F1F0EB" stroke-width="2"/>
</svg>
