<?xml version="1.0" standalone="no"?>
<!DOCTYPE svg PUBLIC "-//W3C//DTD SVG 20010904//EN"
 "http://www.w3.org/TR/2001/REC-SVG-20010904/DTD/svg10.dtd">
<svg version="1.0" xmlns="http://www.w3.org/2000/svg"
 width="1273.000000pt" height="1273.000000pt" viewBox="0 0 1273.000000 1273.000000"
 preserveAspectRatio="xMidYMid meet">
<metadata>
Created by potrace 1.14, written by Peter Selinger 2001-2017
</metadata>
<g transform="translate(0.000000,1273.000000) scale(0.100000,-0.100000)"
fill="#000000" stroke="none">
<path d="M5816 12362 c-4 -7 -11 -10 -16 -7 -4 3 -11 -2 -14 -10 -4 -13 -2
-14 14 -5 11 6 20 9 21 8 6 -24 5 -39 -2 -44 -5 -3 -8 0 -7 8 2 8 -7 13 -22
13 -19 0 -24 5 -22 20 2 16 1 17 -7 5 -5 -8 -7 -18 -5 -22 3 -4 -2 -5 -11 -2
-11 5 -14 2 -9 -12 4 -15 4 -16 -4 -5 -6 8 -32 15 -63 17 -33 1 -47 -1 -39 -6
8 -5 18 -6 22 -4 4 3 16 0 25 -5 14 -8 8 -10 -24 -7 -23 2 -44 1 -46 -2 -2 -4
-2 -1 -1 6 5 18 -13 14 -20 -5 -6 -15 -8 -15 -16 -3 -6 9 -5 18 3 23 8 6 7 7
-3 4 -8 -2 -14 -10 -12 -16 1 -6 -7 -11 -19 -11 -13 0 -18 -4 -13 -12 6 -10 4
-10 -7 0 -18 17 -69 15 -90 -4 -13 -12 -19 -12 -25 -3 -4 8 -3 10 4 5 7 -4 12
-2 12 3 0 18 -18 13 -29 -8 -8 -13 -19 -17 -41 -15 -18 2 -35 6 -39 8 -4 3 -8
-1 -8 -9 0 -8 5 -11 11 -8 6 3 8 3 4 -2 -4 -4 -2 -15 5 -23 9 -11 4 -11 -15 2
-16 10 -28 14 -28 9 0 -5 -11 -9 -24 -9 -22 0 -23 3 -14 21 6 11 7 17 3 13 -5
-4 -14 -3 -20 2 -9 8 -14 6 -19 -5 -3 -9 -11 -13 -17 -9 -8 5 -9 3 -4 -5 5 -9
10 -10 18 -2 16 16 27 14 21 -3 -5 -14 -33 -14 -56 0 -7 4 -8 3 -4 -4 4 -7 1
-12 -7 -12 -8 0 -20 -6 -26 -14 -12 -15 -28 -16 -48 -3 -8 5 -13 4 -13 -2 0
-6 -5 -11 -10 -11 -6 0 -9 3 -9 8 3 19 -2 33 -11 27 -6 -3 -13 1 -16 9 -3 9
-10 16 -15 16 -4 0 -6 -7 -3 -15 5 -11 2 -13 -10 -9 -11 4 -15 13 -11 23 4 11
3 13 -4 6 -5 -5 -12 -23 -15 -40 -2 -16 -5 -32 -6 -35 -1 -3 -2 -14 -1 -25 1
-18 1 -19 -9 -2 -6 9 -16 17 -22 17 -6 0 1 -11 16 -25 15 -14 32 -23 37 -20 5
4 6 -2 2 -11 -4 -11 -8 -13 -11 -6 -2 7 -8 12 -13 12 -6 0 -7 -4 -4 -10 3 -6
-1 -7 -9 -4 -9 4 -16 1 -16 -6 0 -10 -3 -10 -14 -1 -10 8 -16 9 -21 1 -3 -5
-1 -10 4 -10 6 0 11 -5 11 -10 0 -7 -6 -7 -18 -1 -14 7 -19 6 -19 -4 0 -7 7
-11 15 -7 11 4 13 1 7 -9 -6 -11 -5 -12 6 -1 19 17 26 15 32 -10 5 -19 8 -20
24 -7 16 13 17 12 4 -3 -9 -13 -10 -18 -2 -18 8 0 8 -4 -1 -14 -9 -9 -15 -10
-20 -3 -4 6 -5 14 -2 18 2 4 -6 5 -18 1 -14 -3 -17 -7 -9 -10 17 -6 51 -39 51
-51 0 -5 -7 -12 -16 -15 -11 -4 -18 1 -22 16 -5 21 -6 21 -13 2 -7 -16 -8 -17
-8 -1 -1 9 -8 17 -16 17 -8 0 -15 7 -15 15 0 13 -26 21 -53 16 -5 -1 -5 3 -2
9 4 6 14 9 22 6 8 -3 11 -1 8 4 -4 6 -12 10 -18 9 -30 -4 -47 2 -47 16 0 9 -9
15 -22 15 -13 0 -30 5 -38 11 -13 8 -12 9 4 7 10 -2 20 3 22 10 1 7 0 8 -2 3
-4 -6 -14 -7 -30 -1 -20 8 -24 6 -24 -9 0 -11 -6 -22 -12 -25 -7 -3 -4 -4 8
-1 12 3 29 2 39 -1 15 -6 15 -8 -6 -20 -13 -7 -24 -16 -24 -20 0 -5 -9 -10
-20 -11 -18 -3 -18 -2 -2 8 21 12 22 26 2 26 -8 0 -12 -4 -9 -9 3 -4 -7 -3
-23 3 -32 12 -33 12 -52 -4 -12 -10 -14 -9 -8 6 3 9 2 17 -3 17 -6 0 -10 -8
-10 -17 0 -16 -2 -16 -11 -3 -9 13 -10 13 -6 -2 5 -13 1 -16 -19 -12 -13 2
-24 0 -24 -6 0 -6 8 -10 18 -9 32 3 40 -1 37 -18 -2 -10 -4 -20 -4 -23 -1 -3
-6 2 -12 10 -8 12 -10 12 -7 1 2 -8 12 -15 21 -17 9 -1 15 2 11 7 -3 5 0 9 5
9 6 0 11 -6 11 -14 0 -9 -10 -13 -29 -12 -16 0 -27 4 -24 8 2 5 -4 11 -14 14
-48 15 -58 23 -23 19 l35 -5 -28 16 c-15 8 -31 12 -36 10 -5 -3 -12 1 -15 9
-4 11 -16 14 -41 12 -19 -2 -35 -1 -35 4 0 5 -7 6 -15 3 -8 -3 -17 0 -20 8 -7
17 -47 21 -56 6 -6 -9 -12 -8 -24 2 -13 11 -12 6 4 -24 12 -20 19 -41 17 -45
-3 -4 9 -8 27 -9 17 -2 47 -5 66 -8 20 -3 42 -6 48 -6 17 -2 7 -11 -15 -14 -9
-2 -19 1 -22 6 -3 4 -14 1 -25 -7 -19 -15 -19 -15 5 -8 22 7 23 6 11 -9 -7 -9
-12 -16 -10 -17 25 -5 49 -4 49 3 0 5 8 5 18 0 9 -5 34 -8 55 -7 31 3 37 0 34
-13 -2 -10 -8 -16 -13 -15 -6 1 -16 -7 -23 -19 -7 -11 -8 -17 -2 -13 6 3 11
-1 11 -9 0 -10 -6 -13 -15 -10 -8 4 -15 1 -15 -7 0 -7 -3 -9 -7 -6 -3 4 -13 1
-21 -6 -9 -6 -13 -7 -10 -2 4 6 -9 10 -32 10 -29 0 -36 -3 -28 -12 5 -6 15
-10 23 -7 7 3 15 2 18 -3 8 -12 -107 -12 -115 1 -5 7 -8 5 -8 -6 0 -9 -5 -20
-12 -24 -6 -4 -8 -3 -5 3 4 6 -2 13 -13 16 -16 4 -18 2 -10 -13 10 -19 -1 -36
-14 -23 -4 4 -13 8 -22 9 -11 2 -12 -1 -4 -11 8 -10 8 -15 -1 -21 -7 -4 -9 -3
-6 2 3 6 -2 15 -12 21 -14 9 -18 8 -18 -3 0 -7 5 -10 10 -7 6 3 7 1 3 -6 -10
-15 -26 -4 -26 17 0 15 -2 15 -10 2 -5 -8 -10 -10 -10 -4 0 7 -7 15 -16 18
-10 4 -13 2 -8 -6 5 -7 2 -9 -8 -5 -9 3 -21 0 -27 -6 -8 -8 -11 -7 -11 3 0 10
-8 6 -21 -10 -13 -16 -19 -19 -15 -8 3 10 1 20 -4 23 -6 4 -10 -2 -11 -12 0
-17 -1 -17 -8 1 -7 17 -8 17 -24 2 -15 -16 -21 -14 -18 6 1 9 -27 4 -36 -7 -4
-4 -3 -5 4 -2 6 4 13 2 15 -3 3 -11 26 -18 61 -19 10 -1 15 -6 12 -12 -4 -6 2
-5 14 3 12 7 21 15 21 19 0 12 29 5 34 -7 3 -8 13 -11 23 -8 15 5 15 4 3 -5
-9 -6 -18 -7 -24 -1 -13 13 -26 13 -26 0 0 -6 6 -9 13 -8 6 2 11 -3 9 -10 -2
-10 2 -10 17 -3 10 6 21 8 24 5 3 -3 24 -6 48 -6 24 -1 36 -3 26 -6 -14 -3
-18 -11 -15 -32 3 -20 1 -27 -9 -23 -7 3 -11 15 -9 27 3 17 -1 21 -22 23 -26
1 -26 1 -6 -10 16 -9 19 -17 14 -32 -4 -11 -4 -25 1 -31 6 -7 -2 -9 -24 -6
-17 3 -36 10 -40 16 -4 6 -5 -1 -1 -15 7 -34 -10 -46 -29 -19 -12 18 -15 18
-20 5 -4 -8 -11 -15 -17 -15 -6 0 -8 5 -4 12 5 7 3 8 -6 3 -10 -6 -9 -11 5
-22 11 -7 24 -13 29 -13 6 0 5 4 -3 9 -9 6 -10 11 -3 15 6 4 15 -2 21 -12 10
-19 3 -20 -96 -25 -7 0 -10 -4 -7 -9 3 -5 14 -6 24 -3 10 3 21 2 24 -3 3 -5 0
-9 -7 -9 -7 0 -23 -3 -36 -7 -13 -5 -21 -4 -18 1 3 5 1 15 -5 23 -8 12 -9 12
-4 -2 3 -10 1 -20 -4 -23 -6 -4 -10 -1 -10 6 0 7 -3 9 -7 5 -5 -4 1 -14 11
-22 19 -13 19 -14 -8 -14 -15 0 -25 -4 -22 -9 3 -5 -1 -12 -10 -15 -24 -9 -36
-7 -29 4 4 6 11 8 16 5 5 -4 9 -1 9 4 0 14 -17 14 -25 1 -3 -5 -13 -6 -23 -3
-13 4 -13 2 3 -11 19 -16 19 -16 -15 -14 -30 3 -35 0 -38 -20 -3 -20 -6 -21
-20 -10 -13 11 -15 11 -9 -4 6 -16 -3 -23 -25 -19 -13 2 -9 -17 5 -22 11 -5
-17 -11 -35 -8 -5 0 -8 -4 -8 -10 0 -5 -4 -8 -9 -4 -5 3 -13 0 -17 -6 -4 -7
-3 -9 2 -6 6 3 16 -4 24 -16 12 -20 12 -21 -4 -8 -9 8 -19 11 -22 8 -12 -12
-14 -66 -3 -73 7 -4 9 -3 5 4 -3 6 -3 13 2 16 5 3 9 -1 10 -9 1 -8 3 -22 4
-30 1 -8 5 -15 10 -15 5 0 4 -8 -1 -19 -6 -10 -7 -21 -3 -25 3 -4 -2 -4 -12 0
-13 5 -17 4 -13 -3 4 -6 0 -16 -8 -23 -8 -7 -12 -17 -8 -24 3 -6 2 -7 -2 -3
-5 4 -10 15 -12 25 -13 61 -23 81 -41 76 -14 -5 -14 -4 -2 4 8 6 18 8 22 6 4
-3 8 0 8 5 0 6 -11 10 -24 9 -17 -2 -23 -7 -21 -19 2 -10 -3 -20 -11 -23 -9
-3 -12 -11 -8 -18 5 -8 2 -9 -10 -5 -10 4 -15 3 -11 -3 3 -6 13 -10 21 -10 8
0 13 -4 10 -9 -3 -5 1 -12 9 -15 12 -4 13 -2 5 13 -7 15 -6 20 6 25 24 9 28 7
15 -8 -9 -11 -9 -16 0 -22 8 -4 9 -3 5 4 -4 7 -2 12 3 12 12 0 12 0 16 -48 2
-28 -1 -32 -16 -27 -14 5 -17 2 -13 -9 7 -17 -31 -41 -48 -30 -7 5 -8 3 -3 -5
4 -7 16 -11 26 -8 10 3 22 0 26 -6 3 -7 3 -9 -1 -5 -4 3 -21 2 -37 -4 -28 -10
-29 -11 -12 -24 16 -13 16 -14 -9 -10 -15 3 -31 0 -34 -6 -4 -6 -2 -8 3 -5 6
4 16 0 23 -8 11 -13 10 -14 -4 -9 -12 5 -19 0 -23 -15 -3 -11 -9 -21 -14 -21
-18 0 -46 -37 -44 -58 1 -20 -6 -26 -27 -23 -4 0 -6 -14 -5 -32 1 -21 -2 -31
-11 -29 -10 2 -10 -2 -2 -18 6 -12 7 -20 1 -20 -5 0 -12 6 -14 13 -5 11 -11
-46 -8 -66 1 -5 -3 -6 -7 -3 -5 3 -8 17 -6 32 1 14 0 23 -4 20 -8 -8 -12 -32
-14 -78 -1 -21 -5 -33 -9 -26 -4 6 -6 20 -4 30 2 10 0 18 -5 18 -4 0 -7 -19
-6 -42 1 -33 -4 -46 -19 -56 -17 -11 -17 -13 -2 -8 12 4 17 2 15 -6 -3 -7 -10
-13 -16 -13 -5 0 -14 -3 -18 -7 -4 -5 -3 -8 3 -8 6 0 8 -11 5 -25 -2 -14 -10
-25 -16 -25 -13 0 -15 -7 -18 -60 -1 -16 -6 -30 -11 -30 -5 0 -7 7 -3 15 3 8
1 15 -4 15 -6 0 -11 -10 -12 -22 -1 -13 -2 -30 -4 -38 -1 -8 -2 -21 -3 -29 -1
-10 -5 -11 -13 -3 -10 8 -13 4 -13 -18 0 -15 4 -26 8 -23 5 3 5 -3 -1 -13 -5
-11 -8 -27 -7 -37 3 -14 0 -16 -10 -7 -10 8 -15 8 -21 -1 -4 -7 -3 -9 3 -6 6
4 14 0 17 -9 4 -10 2 -13 -6 -8 -8 5 -9 2 -5 -9 3 -9 2 -19 -3 -22 -5 -3 -8
-19 -6 -35 3 -23 -1 -30 -13 -30 -13 0 -17 -9 -17 -34 0 -19 3 -33 7 -30 4 2
11 -1 15 -7 4 -7 3 -10 -2 -7 -5 3 -15 0 -22 -8 -7 -8 -8 -14 -2 -14 5 0 10
-5 10 -11 0 -5 -6 -7 -12 -3 -10 6 -10 4 -2 -7 17 -23 11 -119 -8 -133 -10 -7
-15 -23 -14 -39 3 -25 -4 -32 -27 -28 -5 1 -6 -3 -2 -9 3 -6 11 -8 16 -5 5 4
9 -4 9 -16 0 -17 -3 -19 -14 -10 -12 10 -14 9 -11 -6 1 -10 8 -17 15 -15 6 1
9 -2 5 -8 -3 -6 -10 -8 -15 -5 -4 3 -13 -2 -20 -10 -11 -13 -10 -14 3 -9 14 5
15 1 7 -25 -5 -17 -6 -31 -3 -31 3 0 -1 -8 -10 -18 -9 -9 -17 -37 -18 -60 -2
-24 -7 -46 -13 -49 -5 -3 -6 -1 -2 5 3 6 3 13 -2 16 -8 4 -13 -29 -15 -86 0
-15 -4 -25 -9 -22 -5 3 -6 9 -3 14 3 5 2 11 -3 14 -4 3 -9 -12 -10 -32 -5 -66
-8 -77 -26 -74 -14 3 -16 0 -8 -14 6 -10 6 -29 1 -47 -5 -16 -6 -34 -3 -38 3
-5 -1 -7 -8 -4 -7 3 -18 -6 -25 -20 -6 -14 -7 -23 -2 -19 5 3 9 -2 9 -11 0
-10 -5 -13 -12 -9 -9 5 -9 2 1 -9 16 -20 2 -23 -19 -4 -12 10 -12 9 -2 -4 8
-11 8 -19 1 -26 -8 -8 -8 -13 0 -17 6 -4 7 -15 2 -29 -5 -12 -7 -30 -6 -39 2
-10 -1 -20 -6 -24 -5 -3 -6 -10 -3 -16 4 -7 2 -8 -4 -4 -12 7 -14 -1 -15 -71
0 -18 -5 -33 -9 -33 -5 0 -8 6 -6 14 2 8 -1 14 -7 13 -13 -3 -14 -37 -1 -37 6
-1 0 -7 -14 -16 l-25 -15 25 7 c24 7 24 6 7 -19 -12 -19 -13 -27 -4 -30 6 -2
3 -3 -8 -1 -18 3 -20 -2 -20 -44 1 -32 -4 -49 -14 -53 -19 -7 -23 -39 -8 -59
6 -8 7 -12 3 -8 -15 12 -36 -25 -24 -40 6 -7 8 -16 4 -19 -4 -4 -11 -1 -16 7
-8 12 -10 12 -10 2 0 -8 9 -16 20 -19 11 -3 17 -9 14 -14 -3 -5 -10 -7 -15 -4
-10 7 -11 4 -14 -52 -2 -34 1 -40 14 -36 12 3 12 2 -2 -7 -9 -6 -15 -15 -12
-21 4 -5 2 -9 -3 -9 -5 0 -9 -7 -9 -15 0 -8 4 -12 7 -10 4 3 6 -14 5 -38 -2
-33 -6 -41 -20 -39 -14 3 -15 1 -4 -11 8 -8 18 -12 23 -9 5 3 6 -3 2 -14 -15
-38 -18 -72 -7 -78 6 -4 11 -12 11 -18 0 -6 -9 -3 -20 7 -17 16 -20 16 -15 3
8 -20 32 -31 41 -17 3 5 1 16 -5 23 -8 9 -7 13 4 13 8 0 13 -2 10 -5 -2 -3 0
-14 6 -25 7 -12 7 -17 1 -13 -5 3 -13 -1 -16 -10 -9 -23 -7 -34 4 -34 5 0 7 7
4 15 -4 8 -1 15 4 15 6 0 9 -10 7 -22 -3 -12 1 -28 8 -37 9 -12 9 -13 -1 -7
-9 6 -11 -3 -8 -36 2 -24 5 -45 6 -48 1 -3 1 -9 0 -15 -8 -38 -8 -45 1 -45 6
0 7 -5 3 -12 -12 -20 -11 -58 2 -58 13 0 13 17 2 36 -4 6 -2 11 5 11 8 0 13
-13 13 -32 0 -27 -3 -31 -21 -27 -18 5 -17 3 5 -17 14 -12 19 -20 13 -16 -7 3
-13 3 -14 -2 0 -4 -2 -16 -4 -25 -2 -10 4 -23 13 -28 14 -9 12 -10 -7 -4 -16
4 -21 3 -17 -5 4 -6 14 -11 22 -11 8 0 12 -5 9 -10 -4 -6 -11 -7 -17 -4 -7 4
-8 2 -4 -5 4 -6 12 -9 17 -6 5 4 9 2 9 -3 0 -16 -13 -22 -25 -12 -8 7 -12 5
-12 -5 0 -7 3 -14 6 -13 22 2 27 -7 27 -50 -1 -27 -7 -56 -14 -65 -12 -14 -11
-15 12 -11 14 2 26 0 26 -6 0 -5 -3 -9 -7 -9 -5 1 -18 1 -30 0 l-22 -1 22 -23
c12 -13 25 -22 29 -20 9 4 4 -24 -6 -34 -4 -4 -6 -1 -4 7 2 8 -2 14 -8 13 -7
-1 -11 3 -10 10 0 7 -3 13 -8 15 -6 1 -10 -11 -10 -26 -1 -16 -8 -37 -16 -47
-8 -11 -10 -16 -3 -12 6 4 14 3 18 -3 3 -5 -2 -10 -12 -11 -14 0 -15 -2 -3 -7
22 -10 24 -34 4 -49 -11 -8 -13 -13 -5 -13 7 0 9 -5 6 -10 -4 -6 -10 -8 -14
-6 -4 3 -7 -9 -6 -26 1 -18 7 -34 15 -36 9 -3 6 -9 -10 -17 -19 -10 -20 -13
-6 -18 10 -4 15 -3 11 3 -3 6 -1 10 4 10 6 0 11 -6 12 -12 0 -7 3 -26 5 -41 4
-21 2 -27 -7 -21 -8 5 -9 3 -4 -6 4 -7 2 -16 -6 -22 -11 -8 -10 -8 4 -4 12 4
17 2 14 -6 -2 -7 -9 -12 -14 -11 -5 1 -10 -4 -10 -12 0 -8 5 -11 11 -7 6 4 14
7 19 8 4 1 9 2 12 3 3 0 1 10 -5 22 -8 14 -8 24 -1 33 6 7 8 15 5 19 -3 3 0
15 6 28 11 19 10 21 -3 16 -8 -3 -18 0 -20 7 -4 10 1 12 15 8 15 -3 19 -1 14
7 -4 6 -11 9 -16 6 -14 -9 -33 34 -22 48 5 7 8 20 7 30 -2 9 0 15 5 12 5 -3 7
6 6 20 -2 13 1 22 6 19 5 -3 7 -12 4 -20 -3 -8 0 -14 7 -14 7 0 8 -3 2 -8 -17
-12 -16 -32 3 -33 14 0 14 -2 -3 -9 -12 -5 -14 -9 -6 -9 11 -1 10 -5 -5 -17
-10 -8 -13 -12 -6 -9 8 4 19 -1 26 -11 11 -14 11 -22 0 -42 -11 -21 -10 -30 2
-55 9 -16 13 -31 11 -34 -3 -2 -8 5 -12 16 -3 12 -11 21 -16 21 -12 0 -12 -17
1 -25 6 -4 10 -12 9 -18 -3 -27 2 -48 10 -43 4 3 17 -1 27 -9 16 -13 17 -16 4
-25 -14 -9 -7 -15 15 -10 5 1 1 -8 -9 -19 -10 -11 -24 -18 -30 -14 -6 4 -5 -1
2 -10 15 -18 7 -41 -10 -31 -7 4 -8 2 -4 -5 6 -9 11 -9 21 -1 9 7 15 7 19 1 4
-5 -2 -15 -11 -21 -13 -8 -14 -10 -3 -9 8 1 22 1 30 0 13 -1 13 -2 0 -11 -13
-8 -12 -10 3 -10 10 0 17 -7 17 -17 0 -15 -2 -16 -10 -3 -5 8 -12 12 -15 8 -3
-3 2 -13 12 -23 9 -10 17 -29 18 -44 0 -14 5 -26 12 -26 6 0 15 -4 20 -9 5 -5
3 -6 -4 -2 -7 4 -14 2 -14 -3 -3 -26 -4 -30 -11 -37 -15 -14 -8 -24 16 -24 14
0 28 -5 32 -12 5 -7 3 -8 -6 -3 -10 6 -12 4 -7 -9 4 -9 3 -15 -1 -12 -9 5 -8
-52 1 -61 4 -3 1 -13 -6 -21 -10 -13 -9 -14 2 -8 9 6 12 5 9 -5 -3 -8 -11 -13
-18 -11 -10 2 -11 0 -3 -10 6 -7 13 -27 15 -44 2 -17 12 -39 22 -49 18 -19 18
-19 12 1 -7 24 26 60 45 48 8 -4 10 -3 5 4 -4 7 -13 12 -19 12 -7 0 -13 9 -14
20 -1 11 1 19 5 17 4 -1 7 3 7 8 0 6 -6 9 -15 7 -10 -2 -8 4 7 16 12 11 19 22
16 26 -4 3 -1 6 6 6 7 0 11 -6 8 -12 -2 -7 0 -23 4 -35 5 -14 4 -23 -4 -27 -9
-3 -8 -5 1 -5 7 -1 11 -5 7 -10 -3 -5 2 -16 10 -24 10 -10 15 -37 16 -77 1
-48 5 -60 16 -56 8 4 11 1 8 -5 -4 -6 1 -20 12 -31 10 -12 12 -18 6 -14 -18
10 -16 -12 2 -30 8 -9 15 -25 15 -37 0 -18 2 -20 11 -7 9 12 10 11 6 -7 -3
-16 0 -23 9 -23 17 0 18 -16 2 -26 -7 -5 -8 -3 -3 6 5 9 4 11 -4 6 -9 -6 -9
-11 1 -23 7 -9 13 -23 13 -32 0 -9 7 -15 15 -13 8 2 12 0 8 -4 -4 -4 -2 -14 4
-23 8 -10 4 -9 -10 3 -20 17 -22 17 -23 3 -3 -34 -4 -38 -19 -48 -13 -9 -13
-10 2 -6 21 7 31 -3 17 -19 -8 -9 -5 -18 10 -33 12 -12 21 -26 21 -32 0 -5 4
-8 9 -5 5 4 8 -2 7 -11 -2 -10 4 -24 13 -31 9 -7 12 -12 6 -11 -23 3 -36 -2
-30 -11 4 -6 11 -7 17 -4 7 4 8 2 4 -4 -4 -7 -3 -12 2 -12 6 0 13 -7 16 -16 3
-8 2 -12 -3 -9 -5 3 -12 1 -16 -5 -3 -5 -2 -10 3 -10 5 0 9 -7 9 -15 0 -8 -5
-15 -10 -15 -5 0 -4 -7 3 -15 12 -15 11 -16 -12 -19 -7 0 -14 -14 -16 -29 -3
-25 -5 -27 -20 -15 -9 7 -7 1 5 -15 18 -23 20 -31 10 -42 -7 -7 -15 -11 -19
-9 -4 2 -10 0 -13 -6 -4 -6 -3 -10 2 -9 22 4 32 -3 30 -20 0 -11 -5 -17 -9
-15 -5 3 -6 10 -3 15 4 5 1 9 -4 9 -15 0 -14 -23 1 -39 10 -11 10 -13 1 -7
-20 11 -15 -12 5 -24 16 -11 16 -11 0 -6 -10 3 -20 1 -23 -4 -4 -6 -1 -10 4
-10 6 0 11 -5 11 -11 0 -5 -6 -7 -12 -3 -9 5 -9 2 1 -9 15 -18 26 -23 16 -7
-3 6 -1 10 5 10 6 0 10 -8 8 -17 -2 -10 -9 -17 -14 -16 -6 1 -11 -4 -11 -12 0
-10 5 -11 18 -5 14 8 16 6 11 -13 -5 -20 -4 -21 14 -7 17 14 18 13 7 -1 -7 -9
-9 -20 -5 -24 4 -5 -2 -5 -12 -1 -15 5 -17 4 -8 -7 7 -8 8 -18 4 -23 -4 -4 1
-2 11 5 9 8 20 11 24 7 3 -3 1 -6 -5 -6 -23 0 -7 -43 20 -54 23 -10 26 -15 15
-26 -9 -10 -9 -12 1 -6 6 4 12 2 12 -4 0 -6 5 -8 13 -4 7 5 6 0 -3 -11 -9 -11
-10 -16 -2 -11 7 4 12 2 12 -4 0 -7 6 -10 13 -7 9 3 13 -7 14 -37 2 -85 2 -86
21 -80 14 5 15 4 2 -5 -20 -14 -21 -91 -1 -83 10 4 13 1 8 -12 -4 -10 -1 -19
7 -22 8 -3 19 -19 25 -36 6 -16 14 -27 18 -25 5 3 17 -1 28 -10 19 -14 18 -14
-10 -9 l-30 6 28 -12 c15 -7 27 -18 27 -26 0 -8 6 -12 15 -8 10 4 15 -1 15
-14 0 -11 3 -19 8 -19 26 4 52 -3 52 -15 0 -8 7 -16 14 -19 11 -4 13 -1 10 11
-5 16 -5 16 5 0 8 -11 21 -15 43 -13 29 4 30 3 12 -10 -18 -14 -18 -14 4 -15
13 0 21 -4 17 -9 -3 -5 -1 -13 5 -16 6 -4 9 -1 8 6 -2 6 3 14 11 17 8 2 11 0
8 -6 -4 -5 1 -16 10 -23 14 -12 15 -11 9 11 -6 21 -5 22 4 7 6 -9 15 -15 20
-12 4 3 11 -6 14 -20 4 -15 11 -22 20 -19 8 3 13 -1 13 -10 -1 -8 3 -15 8 -15
6 -1 10 5 10 12 1 6 7 11 15 9 10 -2 11 0 1 11 -9 12 -8 16 8 20 10 2 25 1 32
-3 13 -9 20 -48 10 -55 -4 -2 -5 -22 -3 -44 2 -23 8 -39 12 -36 5 3 12 1 15
-5 4 -6 1 -9 -6 -8 -8 2 -14 -8 -14 -27 -2 -39 4 -49 21 -34 19 15 18 4 -1
-14 -13 -13 -13 -16 1 -21 8 -3 12 -2 9 4 -3 6 -1 10 5 10 7 0 14 -9 17 -20 3
-11 12 -20 20 -20 11 0 14 -9 11 -35 -2 -19 0 -35 5 -35 4 0 5 -4 2 -10 -3 -5
-1 -10 4 -10 6 0 11 -5 11 -11 0 -5 -4 -8 -8 -5 -5 3 -8 -8 -8 -25 0 -21 4
-28 13 -24 8 2 12 1 8 -4 -3 -5 1 -12 7 -15 7 -3 3 -3 -9 -1 -12 3 -24 1 -28
-4 -4 -7 1 -8 11 -4 12 4 15 3 10 -5 -4 -7 -2 -10 6 -7 10 4 14 -4 14 -30 0
-19 -5 -35 -11 -35 -5 0 -4 -4 3 -9 17 -11 17 -21 0 -32 -7 -5 -8 -9 -3 -9 6
0 11 -9 12 -20 1 -12 -3 -18 -9 -14 -6 4 -6 -1 1 -14 6 -12 12 -32 13 -45 2
-24 5 -25 53 -28 14 -1 25 -5 25 -9 0 -5 -14 -7 -30 -6 -37 3 -26 -11 14 -18
32 -6 46 -15 25 -17 -8 -1 -17 -1 -21 0 -4 0 -5 -6 -1 -15 4 -12 8 -13 13 -3
5 8 18 9 36 4 28 -7 28 -7 7 -16 -13 -4 -23 -10 -23 -13 0 -6 37 1 50 9 17 10
11 -6 -8 -23 -10 -10 -12 -13 -5 -8 13 8 17 -2 14 -34 -2 -13 -1 -13 9 0 8 13
11 13 19 1 5 -8 16 -11 24 -8 21 8 36 -12 39 -51 1 -18 6 -32 11 -32 5 0 7 7
4 15 -4 8 -3 16 1 19 14 9 11 -33 -4 -45 -8 -6 -14 -17 -14 -23 0 -6 5 -3 11
7 5 9 15 17 21 17 6 0 5 -7 -3 -17 -12 -14 -12 -16 0 -8 11 6 13 3 9 -13 -4
-12 -1 -25 4 -29 7 -3 8 -1 4 5 -4 7 -2 12 3 12 6 0 11 -16 11 -35 0 -19 3
-35 8 -35 4 0 13 -12 19 -28 l13 -27 -20 24 c-11 13 -20 19 -20 13 0 -19 31
-42 58 -43 17 -1 21 -3 10 -6 -14 -3 -16 -9 -8 -22 5 -10 7 -21 4 -24 -9 -9
35 -19 47 -11 7 4 9 3 5 -4 -3 -6 -2 -13 3 -16 5 -4 8 -17 6 -31 -1 -14 2 -25
6 -25 5 0 9 -5 9 -11 0 -5 -4 -7 -10 -4 -5 3 -10 1 -10 -4 0 -6 5 -11 11 -11
6 0 7 -5 2 -12 -4 -7 -8 -23 -8 -35 -1 -16 2 -19 11 -12 8 7 15 6 20 -2 4 -8
3 -9 -4 -5 -7 4 -12 3 -12 -3 0 -5 4 -12 9 -15 5 -4 8 -12 7 -19 -3 -20 -17
-38 -26 -32 -4 3 -5 -5 -2 -17 5 -19 7 -20 10 -5 6 30 19 19 20 -18 1 -21 -3
-35 -11 -36 -7 0 -1 -5 12 -10 14 -5 21 -15 18 -23 -3 -8 -3 -17 0 -20 11 -11
12 -56 2 -56 -6 0 -8 4 -4 9 3 5 1 12 -5 16 -6 4 -9 -4 -8 -19 1 -13 6 -22 10
-20 4 3 8 -1 9 -8 0 -7 2 -23 5 -35 4 -24 -11 -32 -19 -11 -2 7 -4 -3 -3 -24
1 -23 5 -33 11 -28 6 5 11 -2 12 -18 0 -15 -4 -30 -10 -34 -9 -6 -9 -8 0 -8 8
0 11 -16 9 -50 -2 -47 2 -55 27 -51 5 1 6 -3 2 -9 -3 -6 -10 -8 -15 -5 -4 3
-10 -4 -13 -16 -3 -12 0 -22 9 -26 12 -4 12 -8 -3 -18 -17 -13 -17 -14 0 -20
17 -7 17 -8 0 -22 -17 -13 -16 -14 7 -9 14 3 19 3 12 0 -10 -5 -10 -9 0 -22
12 -15 11 -15 -4 -4 -15 12 -17 11 -15 -7 1 -12 6 -20 12 -17 6 2 11 -5 11
-15 0 -11 -4 -15 -11 -9 -7 6 -11 2 -11 -9 0 -13 5 -17 16 -13 13 5 13 4 0
-13 -8 -10 -10 -16 -4 -12 7 4 12 -2 12 -18 0 -14 -6 -25 -12 -25 -8 0 -8 -2
0 -8 7 -4 11 -21 11 -39 -1 -17 -5 -29 -10 -26 -4 2 -5 9 -2 14 4 5 2 9 -3 9
-6 0 -9 -11 -8 -24 0 -13 4 -22 7 -20 4 2 9 -3 12 -11 4 -10 1 -12 -11 -8 -14
5 -15 3 -4 -8 6 -7 12 -18 12 -23 0 -6 -4 -5 -9 3 -6 9 -11 10 -15 2 -4 -6 -3
-11 3 -11 5 0 8 -14 6 -31 -3 -25 -1 -30 13 -24 12 4 10 -1 -6 -15 -15 -14
-20 -26 -14 -33 5 -7 7 -32 5 -57 -5 -58 -5 -59 -1 -103 3 -21 2 -40 -1 -42
-3 -1 -6 -53 -6 -114 1 -85 -2 -110 -12 -107 -8 3 -10 -1 -6 -11 4 -10 2 -14
-4 -10 -7 5 -9 -1 -5 -15 4 -17 2 -20 -12 -15 -14 5 -16 3 -11 -12 5 -17 1
-19 -44 -17 -51 3 -75 -4 -69 -20 1 -5 -10 -11 -27 -14 -16 -3 -29 -10 -27
-15 2 -5 -1 -11 -7 -13 -6 -2 -8 3 -5 12 3 9 1 16 -5 16 -6 0 -10 -3 -10 -7 4
-23 -5 -28 -41 -27 -22 0 -40 -3 -40 -8 0 -5 11 -6 25 -4 13 3 27 1 30 -3 2
-5 -3 -8 -13 -8 -80 0 -122 -5 -122 -14 0 -5 5 -7 12 -3 6 4 8 3 4 -4 -6 -11
-14 -12 -68 -13 -18 -1 -29 -8 -34 -21 -4 -14 -8 -17 -14 -8 -5 8 -15 4 -35
-15 -16 -14 -34 -24 -42 -21 -7 3 -15 0 -19 -6 -5 -7 -2 -8 6 -3 8 5 11 3 9
-4 -3 -7 -8 -12 -13 -11 -4 1 -14 -6 -21 -16 -13 -18 -50 -30 -39 -12 4 7 0 7
-12 0 -11 -5 -26 -12 -34 -16 -9 -4 -7 -5 6 -2 11 2 21 -2 21 -8 0 -6 -16 -10
-36 -10 -20 1 -39 -4 -43 -10 -5 -8 -8 -8 -8 0 0 6 -10 10 -22 8 -13 -1 -30
-3 -38 -3 -13 -1 -13 -3 0 -12 13 -9 13 -10 -2 -6 -9 3 -19 3 -22 0 -3 -3 -19
-7 -36 -8 -25 -2 -30 0 -26 14 5 12 2 11 -9 -3 -11 -15 -17 -16 -28 -8 -14 12
-27 6 -27 -12 0 -6 5 -4 10 4 6 9 10 10 10 3 0 -17 -23 -29 -28 -14 -3 9 -11
8 -29 -5 -18 -11 -23 -12 -18 -3 3 8 0 6 -8 -3 -11 -14 -16 -15 -27 -5 -10 9
-11 9 -6 0 4 -7 2 -13 -4 -13 -6 0 -8 -5 -4 -12 4 -7 3 -8 -5 -4 -6 4 -9 11
-6 16 3 5 1 11 -5 15 -6 3 -10 -3 -10 -16 0 -18 -5 -21 -30 -17 -24 4 -30 1
-30 -14 0 -10 -5 -18 -11 -18 -5 0 -8 4 -4 9 3 5 1 13 -5 16 -6 4 -9 1 -8 -7
2 -7 -7 -14 -20 -16 -12 -2 -20 -8 -16 -13 3 -5 10 -6 16 -3 6 4 8 2 4 -4 -3
-6 -15 -9 -26 -7 -11 2 -22 0 -25 -5 -3 -5 -13 -7 -23 -4 -14 5 -13 2 3 -12
17 -14 17 -16 2 -11 -11 4 -26 -2 -39 -15 -13 -13 -19 -15 -16 -6 4 8 1 15 -7
15 -7 0 -11 -6 -8 -14 3 -7 -2 -14 -11 -14 -35 -3 -41 -5 -38 -17 2 -12 -10
-16 -35 -13 -7 1 -13 -3 -13 -9 0 -6 4 -9 9 -5 5 3 12 2 15 -3 2 -4 -7 -9 -21
-10 -33 -3 -45 -11 -37 -24 5 -7 1 -9 -8 -5 -9 3 -24 -3 -34 -14 -9 -10 -23
-19 -31 -19 -7 0 -13 -4 -13 -9 0 -5 -7 -12 -16 -15 -14 -5 -15 -4 -4 9 8 9 8
15 2 15 -6 0 -13 -8 -16 -18 -3 -10 -16 -18 -27 -19 -12 -1 -27 -7 -33 -14 -8
-9 -7 -10 3 -4 9 5 12 4 7 -3 -4 -6 -20 -10 -36 -8 -17 2 -31 -2 -34 -10 -3
-9 1 -11 12 -7 18 7 17 5 -12 -17 -11 -8 -17 -10 -13 -3 4 6 3 14 -3 18 -5 3
-10 1 -10 -5 0 -6 -5 -8 -12 -4 -8 5 -9 2 -5 -10 4 -9 3 -15 -1 -12 -5 3 -21
-1 -36 -9 -14 -8 -24 -10 -21 -5 3 6 -1 7 -9 4 -9 -3 -16 -13 -16 -21 0 -8 -6
-13 -12 -10 -7 2 -19 -3 -26 -12 -8 -9 -11 -10 -7 -3 3 6 1 12 -4 12 -6 0 -11
-7 -11 -15 0 -10 -10 -15 -31 -15 -21 0 -28 -4 -23 -12 6 -10 4 -10 -7 0 -16
15 -29 16 -29 1 0 -5 5 -7 12 -3 6 4 8 3 5 -2 -3 -6 -25 -11 -49 -13 -24 -1
-47 -7 -53 -13 -7 -8 -4 -9 10 -4 16 6 17 5 8 -5 -10 -10 -17 -9 -35 7 -18 15
-20 15 -9 1 12 -15 11 -17 -15 -18 -16 -1 -41 -1 -56 0 -16 0 -28 -4 -28 -10
0 -5 5 -7 10 -4 6 3 10 3 10 -2 0 -8 -54 -35 -80 -40 -8 -1 -34 -4 -58 -7 -24
-2 -46 -7 -50 -11 -4 -3 6 -4 21 -1 14 2 29 1 31 -3 3 -4 -12 -7 -32 -6 -21 0
-42 -6 -49 -15 -9 -11 -12 -12 -13 -2 0 7 -5 10 -10 7 -6 -4 -8 -11 -5 -16 4
-5 1 -9 -4 -9 -22 0 -26 -2 -34 -16 -6 -11 -13 -12 -28 -3 -12 6 -23 8 -27 5
-3 -3 0 -6 6 -6 7 0 12 -4 12 -8 0 -5 -10 -8 -23 -7 -12 1 -25 -5 -29 -14 -6
-14 -7 -13 -7 2 -1 10 -6 15 -11 12 -6 -4 -8 -11 -5 -16 6 -8 -8 -13 -20 -6
-2 1 -11 -7 -20 -18 -9 -11 -14 -15 -11 -8 4 6 2 14 -4 18 -9 6 -14 -7 -11
-27 2 -13 -17 -9 -22 5 -4 9 -6 9 -6 -1 -1 -7 -6 -10 -11 -7 -6 4 -17 1 -25
-5 -12 -10 -15 -10 -16 1 0 8 -4 4 -9 -8 -6 -15 -16 -21 -35 -19 -14 2 -28 -1
-31 -6 -3 -4 -9 -6 -14 -3 -5 3 -11 1 -15 -4 -3 -6 6 -8 22 -5 15 3 24 2 20
-2 -4 -4 -22 -9 -40 -10 -17 -1 -36 -3 -40 -3 -5 -1 -5 -6 -1 -13 4 -7 3 -8
-4 -4 -20 12 -53 16 -47 5 4 -5 12 -6 18 -3 7 4 8 3 4 -2 -5 -5 -21 -10 -35
-10 -71 -4 -104 -9 -109 -18 -3 -5 -1 -6 5 -2 6 3 13 2 16 -3 10 -15 -25 -6
-36 10 -8 11 -9 11 -4 -3 4 -13 -1 -17 -22 -18 -84 -1 -84 -1 -67 -14 14 -10
14 -12 -7 -14 -13 -1 -35 -2 -50 -2 -15 0 -30 -5 -34 -11 -5 -8 -3 -9 6 -4 8
5 11 4 6 -3 -4 -6 -13 -9 -20 -6 -8 3 -17 1 -20 -4 -3 -5 -17 -7 -31 -4 -15 2
-25 0 -25 -7 0 -7 5 -9 10 -6 6 3 10 2 10 -4 0 -5 -9 -9 -20 -8 -14 1 -19 6
-15 17 4 11 1 10 -9 -3 -8 -11 -29 -18 -55 -19 -22 -1 -41 -5 -41 -10 0 -5 4
-7 9 -3 5 3 12 1 15 -4 7 -11 -35 -8 -54 4 -8 5 -11 4 -6 -3 3 -6 2 -13 -4
-17 -5 -3 -10 -1 -10 5 0 7 -6 8 -19 1 -10 -6 -21 -7 -25 -4 -3 3 -6 -2 -6
-12 0 -18 -1 -18 -15 1 -13 16 -14 16 -9 2 5 -13 1 -18 -15 -19 -40 -3 -46 -5
-44 -17 2 -6 -4 -9 -12 -6 -8 4 -12 11 -8 17 3 6 1 7 -6 3 -6 -4 -9 -11 -6
-16 3 -5 1 -11 -5 -15 -5 -3 -10 -1 -10 6 0 7 -8 5 -22 -7 -12 -10 -18 -13
-14 -6 4 6 3 12 -2 12 -6 0 -12 -7 -16 -15 -3 -10 -19 -15 -42 -15 -23 0 -42
-6 -50 -17 -13 -17 -14 -17 -8 0 5 13 2 16 -10 11 -9 -3 -13 -10 -10 -15 3 -5
2 -9 -3 -10 -4 0 -26 -3 -48 -6 -22 -3 -48 -6 -57 -6 -14 -1 -15 -4 -5 -16 10
-11 9 -13 -3 -9 -8 3 -28 -2 -45 -10 -29 -15 -59 -22 -97 -23 -10 0 -18 -6
-18 -13 0 -8 -14 -12 -42 -12 -31 1 -42 -3 -46 -16 -3 -13 -15 -18 -41 -19
-20 0 -30 -3 -23 -6 16 -6 16 -24 0 -22 -25 3 -39 -1 -33 -10 3 -5 0 -13 -6
-17 -7 -4 -9 -3 -5 4 3 6 2 13 -4 17 -5 3 -10 -1 -10 -9 0 -9 -9 -16 -20 -16
-13 0 -18 -5 -14 -15 4 -10 -1 -15 -15 -16 -12 -1 -27 -2 -33 -3 -10 -1 -14
-38 -16 -138 l-3 -138 6366 0 6366 0 -2 109 -1 110 -40 -3 c-27 -2 -46 2 -57
13 -9 9 -31 17 -49 18 -19 1 -40 10 -47 19 -11 16 -15 17 -31 4 -11 -9 -15
-10 -10 -2 8 13 -2 16 -41 12 -18 -1 -22 2 -16 17 6 16 5 16 -11 4 -13 -11
-16 -12 -14 -1 2 8 -8 13 -29 14 -17 1 -35 4 -39 8 -3 4 4 5 16 3 12 -2 20 -1
16 2 -8 8 -32 13 -64 15 -14 0 -21 5 -19 13 5 12 -1 14 -58 17 -19 1 -32 5
-29 10 3 5 10 6 15 3 5 -4 9 1 9 11 0 13 -3 14 -15 4 -8 -6 -19 -9 -25 -5 -6
3 -23 9 -38 11 -15 3 -38 15 -51 27 -13 12 -21 17 -18 10 4 -7 1 -10 -9 -9 -9
1 -20 10 -26 19 -5 9 -19 17 -31 17 -18 0 -19 2 -7 10 12 8 10 10 -10 11 -14
1 -31 2 -37 2 -7 -1 -13 9 -13 21 -1 21 -1 21 -15 2 -15 -20 -16 -19 -19 24
-1 8 -12 14 -28 15 -14 0 -30 4 -35 9 -5 5 -3 6 4 2 9 -5 11 -2 7 9 -5 12 -9
13 -20 4 -10 -8 -14 -8 -14 0 0 6 -10 11 -21 11 -17 0 -19 3 -10 13 8 10 7 14
-2 15 -6 0 -29 2 -49 3 -33 2 -36 4 -20 16 9 7 13 13 7 12 -32 -4 -65 3 -63
13 2 7 -7 14 -20 16 -13 2 -26 10 -29 18 -3 8 -16 14 -30 14 -13 0 -22 4 -18
9 3 5 1 12 -4 15 -5 4 -12 -2 -14 -11 -4 -15 -5 -14 -6 3 -1 17 -7 21 -27 18
-18 -2 -28 3 -31 15 -3 13 -14 17 -48 16 -24 -1 -44 1 -43 4 2 23 -4 32 -17
27 -9 -3 -15 0 -15 9 0 8 -9 15 -20 15 -12 0 -20 7 -20 17 0 14 -2 14 -22 -3
-13 -10 -17 -12 -10 -4 19 22 15 25 -34 27 -27 0 -50 7 -55 15 -8 12 -13 4
-10 -15 1 -5 -3 -6 -9 -2 -6 3 -8 11 -5 16 6 9 3 10 -37 13 -17 1 -22 7 -20
21 2 18 1 18 -8 3 -5 -9 -18 -15 -28 -14 -9 2 -21 -2 -25 -8 -6 -7 -7 -6 -4 4
2 8 14 14 26 14 12 -1 19 1 16 5 -12 12 -50 6 -63 -9 -11 -13 -12 -13 -10 0 2
10 -6 15 -23 16 -32 1 -51 12 -44 25 4 5 1 9 -4 9 -6 0 -11 -8 -11 -17 0 -15
-1 -15 -13 2 -8 10 -19 15 -25 11 -7 -4 -12 -1 -12 8 0 22 -19 29 -37 14 -12
-9 -15 -9 -9 0 5 8 -1 12 -19 12 -20 0 -26 4 -21 15 4 11 -2 15 -24 15 -16 0
-33 7 -38 15 -4 9 -18 17 -30 18 -14 1 -18 5 -12 12 9 11 6 12 -57 16 -16 1
-22 4 -15 6 13 5 17 24 5 22 -26 -4 -53 3 -51 13 2 8 -10 14 -29 16 -18 2 -33
8 -33 13 0 6 6 7 13 3 6 -4 9 -3 4 1 -4 5 -18 10 -30 12 -17 2 -19 1 -7 -6 8
-6 12 -13 8 -16 -3 -3 -13 1 -22 10 -12 12 -16 13 -16 3 0 -8 -3 -9 -8 -3 -12
17 -47 41 -38 28 4 -8 1 -13 -8 -13 -9 0 -15 3 -15 7 3 19 -2 33 -10 31 -5 -2
-17 6 -26 17 -14 17 -16 17 -11 3 3 -10 1 -18 -4 -18 -6 0 -10 7 -10 17 0 9
-3 13 -7 10 -3 -4 -11 1 -18 9 -6 9 -22 18 -36 19 -40 4 -40 5 -33 18 4 6 -3
3 -15 -7 -17 -16 -20 -16 -16 -4 4 9 1 19 -5 23 -6 3 -10 3 -9 -2 4 -23 -3
-29 -32 -25 -22 3 -27 7 -18 13 10 6 10 9 2 9 -6 0 -15 -5 -18 -10 -3 -6 -12
-10 -18 -10 -7 0 -6 4 3 10 13 8 12 10 -5 11 -11 1 -24 1 -28 0 -5 -1 -6 9 -2
21 6 22 5 22 -10 -2 -9 -14 -14 -17 -11 -8 5 19 -16 42 -29 30 -5 -4 -5 -2 -1
5 3 6 1 15 -5 18 -5 4 -8 13 -6 19 3 8 -3 12 -16 11 -26 -3 -49 13 -40 28 4 6
-3 8 -20 3 -20 -5 -32 -1 -49 16 -15 15 -20 17 -15 5 7 -18 -1 -21 -27 -11 -9
3 -13 10 -10 15 5 9 -6 10 -88 12 -20 0 -35 4 -32 9 3 5 9 6 13 4 4 -3 8 1 8
7 0 9 -11 12 -30 9 -25 -4 -29 -2 -24 12 4 9 2 16 -3 16 -6 0 -10 -4 -10 -10
0 -5 -5 -10 -10 -10 -6 0 -9 3 -9 8 1 4 1 16 -1 27 l-1 20 -9 -20 c-7 -17 -9
-17 -9 -2 -1 9 -7 17 -13 17 -10 0 -10 2 -1 8 10 6 10 12 -3 28 -8 10 -13 13
-9 7 3 -7 1 -13 -4 -13 -6 0 -11 7 -11 15 0 8 -3 14 -7 13 -5 -2 -8 2 -8 7 0
6 3 9 8 7 4 -1 7 2 7 8 0 5 -7 10 -16 10 -11 0 -15 6 -11 20 3 11 1 20 -4 20
-4 0 -6 8 -3 18 5 14 4 14 -4 2 -6 -8 -8 -18 -6 -22 3 -4 0 -8 -5 -8 -10 0
-17 39 -11 65 1 5 -1 7 -5 4 -8 -8 -61 40 -57 52 1 5 -1 8 -5 8 -29 -5 -63 3
-58 12 4 6 14 8 22 4 13 -5 14 -3 3 10 -8 9 -16 12 -19 6 -10 -15 -61 -1 -61
18 0 14 2 14 10 1 6 -9 10 -10 10 -3 0 19 -20 26 -26 9 -3 -8 -13 -17 -21 -20
-13 -5 -14 -4 -3 9 14 16 16 15 -62 19 -21 1 -41 5 -45 9 -4 5 9 6 30 4 21 -2
34 0 31 5 -3 5 -12 7 -20 4 -7 -3 -16 -1 -19 5 -4 6 -13 6 -23 0 -9 -5 -25 -6
-36 -2 -12 4 -36 7 -54 5 -27 -1 -30 1 -21 12 9 11 6 14 -20 14 -28 0 -42 12
-23 23 4 2 1 2 -6 1 -7 -2 -17 6 -22 19 -5 12 -9 16 -9 9 -1 -10 -5 -10 -17 2
-8 9 -20 13 -26 10 -6 -4 -8 2 -3 16 6 19 4 22 -13 18 -14 -4 -19 -1 -18 11 0
9 -4 15 -11 14 -6 -2 -15 7 -18 18 -5 14 -12 18 -23 14 -9 -3 -14 -3 -10 0 9
10 -12 66 -23 59 -8 -5 -14 53 -11 119 0 15 -3 27 -8 27 -5 0 -7 -9 -5 -20 2
-11 1 -21 -3 -24 -4 -2 -7 30 -8 72 0 58 4 80 15 90 14 11 14 11 -1 6 -10 -3
-18 -3 -18 1 0 4 8 14 18 21 16 13 16 14 -1 8 -16 -6 -18 -2 -17 27 1 19 1 39
0 44 -1 6 -1 18 0 29 1 10 -3 15 -8 12 -6 -4 -14 -2 -17 4 -4 6 -1 9 7 8 8 -2
14 8 16 26 2 17 0 26 -7 22 -5 -4 -13 -2 -16 4 -4 6 -1 9 6 8 6 -2 13 9 16 24
3 23 0 27 -14 22 -16 -5 -16 -4 1 10 18 14 18 17 4 29 -12 9 -13 17 -7 32 9
19 9 18 5 -3 -2 -12 0 -22 5 -22 5 0 8 18 7 40 -1 22 -5 40 -10 40 -5 0 -7 -4
-3 -9 3 -5 1 -12 -4 -15 -12 -8 -8 23 5 32 5 4 9 23 10 44 1 29 -2 35 -15 30
-14 -5 -14 -3 -2 11 9 11 10 17 2 17 -8 0 -11 104 -11 390 1 327 3 390 15 390
8 0 17 5 21 12 5 8 2 9 -9 5 -9 -3 -19 -1 -23 5 -4 7 -3 8 4 4 12 -7 28 37 24
64 -2 13 -1 13 7 1 5 -8 8 -23 6 -33 -2 -10 -1 -16 4 -14 6 4 12 51 14 114 1
15 6 21 15 17 8 -3 12 0 9 7 -2 7 3 21 11 31 19 21 24 47 10 47 -6 0 -8 -7 -5
-15 4 -8 2 -17 -3 -20 -6 -4 -9 11 -8 36 1 31 6 43 19 46 10 3 15 11 13 18 -7
17 12 29 22 14 5 -8 3 -9 -6 -4 -9 5 -11 4 -6 -4 4 -6 12 -9 17 -5 5 3 7 10 4
15 -4 5 0 9 7 9 10 0 10 2 1 8 -7 4 -11 18 -8 30 4 24 -4 28 -23 12 -9 -7 -9
-7 -2 2 12 14 13 31 3 25 -5 -3 -9 10 -9 29 -1 19 1 32 4 29 10 -10 31 17 26
33 -5 14 -2 13 10 -2 17 -21 20 -14 17 29 -1 11 2 16 6 10 14 -18 32 -15 43 5
13 25 30 26 31 3 0 -10 6 -1 12 20 7 22 16 35 20 31 4 -5 5 -1 1 9 -3 9 -10
14 -15 11 -5 -3 -6 2 -3 11 6 14 8 14 21 -2 10 -13 13 -14 10 -3 -2 8 5 21 17
28 14 9 16 12 4 8 -10 -3 -18 -1 -18 5 0 6 -6 7 -12 4 -7 -4 -5 0 4 8 10 8 15
17 11 20 -3 4 -1 7 6 7 8 0 11 -7 7 -15 -3 -8 -1 -15 4 -15 6 0 10 18 10 39 0
33 3 39 18 36 15 -3 18 2 14 22 -3 17 -1 24 6 19 6 -3 14 -1 18 5 4 7 3 9 -4
5 -11 -7 -28 31 -18 41 3 4 6 -1 6 -10 0 -9 5 -17 10 -17 6 0 10 16 10 36 0
28 3 35 15 31 8 -4 17 -2 20 4 4 5 3 9 -2 8 -20 -3 -34 2 -28 11 4 6 11 8 16
5 5 -4 9 0 9 8 0 8 7 17 15 21 8 3 15 9 14 13 -5 33 2 52 19 47 13 -5 14 -4 3
4 -16 12 -44 4 -35 -9 3 -5 0 -9 -5 -9 -6 0 -11 4 -11 9 0 15 29 33 47 29 16
-4 18 2 17 49 -1 29 3 53 8 53 5 0 7 -4 4 -9 -3 -5 2 -15 12 -22 14 -11 15
-11 5 0 -13 15 -6 44 9 35 5 -3 4 3 -3 14 -7 12 -18 18 -24 16 -5 -3 -1 2 9
10 11 9 14 16 8 16 -9 0 -10 5 -4 18 5 9 7 22 5 29 -2 6 1 14 7 18 6 3 9 1 8
-6 -2 -6 4 -14 12 -16 12 -4 12 -3 1 5 -9 7 -10 12 -2 16 6 4 8 12 5 18 -4 6
0 14 7 19 11 7 10 9 -5 9 -15 0 -16 3 -6 15 6 8 9 24 5 37 -5 17 -4 19 4 8 9
-12 11 -12 17 3 3 9 0 25 -7 35 -13 16 -13 16 5 2 18 -14 19 -13 13 3 -3 9 -2
17 3 17 5 0 8 6 6 13 -1 6 -1 9 1 5 9 -15 22 -8 16 9 -5 12 -3 14 7 8 10 -6
10 -4 2 10 -8 15 -5 22 11 35 16 14 17 17 4 17 -9 0 -13 -5 -10 -10 3 -6 1 -7
-6 -3 -14 9 -5 26 15 26 8 0 14 5 14 11 0 5 -4 8 -8 5 -4 -2 -14 -1 -22 5 -12
7 -11 9 6 9 17 0 21 5 18 26 -1 15 3 28 12 31 12 4 12 8 -3 19 -17 12 -17 13
4 14 15 0 21 5 17 14 -3 8 2 16 13 19 15 4 14 5 -4 6 -12 0 -24 5 -27 10 -3 5
0 9 7 8 36 -1 48 4 45 20 -2 12 4 18 17 18 11 0 19 6 17 13 -1 7 9 12 28 12
19 0 30 5 30 14 0 8 5 18 12 22 7 5 8 3 3 -7 -7 -11 -6 -12 7 -2 8 7 19 9 24
5 4 -4 2 2 -6 12 -14 18 -13 19 3 13 16 -6 23 8 18 36 -1 5 3 6 9 2 6 -3 8
-10 5 -15 -3 -5 0 -12 6 -16 8 -4 9 -3 5 4 -4 7 -3 12 3 12 5 0 8 9 6 21 -3
17 0 20 15 16 16 -4 18 -2 10 13 -6 12 -7 21 0 25 5 3 7 12 4 19 -3 8 -1 17 5
21 6 3 11 1 11 -6 0 -7 3 -9 6 -6 4 4 1 13 -5 21 -15 17 -5 59 11 50 6 -4 8
-2 4 4 -10 16 12 64 26 56 7 -5 8 -3 4 5 -5 7 -15 10 -23 7 -8 -3 -11 -1 -8 4
3 6 12 10 19 10 16 0 16 31 1 42 -6 5 -5 8 4 8 9 0 11 8 7 25 -4 15 -2 25 4
25 6 0 8 5 4 12 -4 6 -3 8 3 5 6 -4 14 0 17 9 9 23 8 26 -6 18 -7 -4 -2 5 12
21 20 22 21 27 7 22 -11 -4 -16 -3 -12 3 3 6 13 10 21 10 8 0 13 4 9 9 -3 5 0
13 6 17 8 4 7 9 -2 16 -10 7 -8 8 9 5 19 -5 22 -1 23 31 1 21 0 44 -1 52 -1
11 2 11 12 -3 11 -15 13 -12 14 30 2 61 5 75 24 91 13 12 13 13 -2 8 -20 -6
-25 10 -5 17 9 4 9 6 -1 6 -7 1 -10 6 -7 11 3 6 3 10 -2 10 -4 0 -7 34 -7 75
1 41 -2 73 -6 70 -4 -3 -10 2 -13 10 -4 10 -1 12 11 9 16 -5 16 -5 0 8 -14 12
-17 34 -16 146 1 77 5 135 11 139 6 3 7 1 3 -5 -3 -6 -3 -13 2 -16 4 -2 8 32
8 77 0 61 -5 85 -16 95 -13 12 -13 13 3 8 9 -3 17 -1 17 4 0 6 -6 10 -12 10
-9 0 -10 3 -2 8 6 4 11 24 12 45 0 20 1 40 2 45 1 4 2 10 1 14 0 4 5 5 12 2 8
-3 14 6 15 27 3 41 12 55 23 38 6 -10 9 -4 9 18 0 17 5 35 12 39 7 5 8 3 3 -6
-5 -9 -4 -11 4 -6 9 6 9 11 -1 24 -10 12 -10 14 0 8 8 -5 12 -1 12 12 0 10 13
32 30 48 24 24 29 37 30 77 0 27 4 46 9 43 5 -3 11 1 15 9 3 8 1 14 -3 12 -5
-1 -8 3 -8 8 1 6 7 9 15 7 8 -2 13 4 12 15 -4 31 0 36 15 23 12 -10 13 -8 10
11 -3 15 3 32 17 46 12 13 16 23 10 23 -7 0 -12 -4 -12 -10 0 -5 -5 -10 -11
-10 -8 0 -8 4 1 15 6 8 8 20 4 26 -4 7 -3 9 4 5 6 -3 13 -2 17 4 3 5 1 10 -5
10 -6 0 -8 5 -3 12 4 7 8 31 9 53 3 56 3 57 14 50 6 -3 10 -3 11 2 0 4 2 24 3
44 3 39 13 62 25 55 4 -3 7 5 6 17 -1 12 -7 22 -12 22 -6 0 -15 4 -20 9 -5 6
-2 6 6 1 11 -6 13 -4 7 10 -5 14 -4 15 7 7 10 -8 13 -6 13 8 0 10 -3 17 -7 14
-4 -2 -10 3 -13 12 -3 8 -2 13 3 10 5 -3 11 3 14 14 5 21 -9 28 -15 8 -3 -7
-7 -5 -11 6 -4 9 -3 15 3 11 5 -3 14 4 20 15 7 13 7 20 0 20 -5 0 -10 -4 -10
-10 0 -5 -5 -10 -11 -10 -6 0 -7 5 -2 13 12 19 14 49 3 42 -6 -4 -7 1 -3 10 4
12 8 13 13 5 5 -8 9 -7 13 5 4 9 3 13 -3 10 -6 -3 -10 -1 -10 5 0 6 -5 8 -12
4 -7 -4 -8 -3 -4 5 4 6 11 9 16 6 4 -3 10 4 13 15 4 15 0 20 -16 21 -22 0 -22
0 1 9 12 5 22 12 22 14 0 3 -6 3 -14 0 -8 -3 -17 0 -22 7 -5 8 -3 10 7 4 11
-7 12 -6 2 6 -7 8 -10 28 -7 44 4 25 3 27 -11 15 -13 -11 -15 -10 -9 4 5 14
24 21 47 17 5 -1 6 3 2 8 -3 6 -12 8 -19 5 -13 -5 -17 13 -16 64 0 9 1 29 1
44 1 15 5 25 10 22 5 -3 9 0 9 5 0 6 -4 11 -9 11 -5 0 -12 7 -15 16 -6 15 -3
14 21 -1 22 -14 25 -15 15 -3 -10 13 -10 17 0 22 7 3 4 4 -7 3 -15 -1 -20 4
-20 21 0 13 -9 31 -20 39 -19 14 -19 15 5 8 l25 -7 -22 21 c-13 12 -23 24 -23
27 0 2 10 -1 23 -7 17 -9 20 -9 10 1 -6 7 -9 19 -6 26 3 8 0 14 -7 14 -6 0 -8
-6 -4 -12 4 -7 -1 -5 -11 4 -15 14 -16 20 -5 32 12 15 5 21 -21 18 -9 -1 -4
52 6 68 6 9 4 11 -5 5 -10 -6 -12 -1 -8 19 3 14 1 26 -4 26 -5 0 -7 4 -3 9 3
5 1 12 -4 15 -5 4 -8 -5 -7 -19 2 -13 0 -22 -4 -20 -4 2 -7 17 -8 32 -1 15 -4
39 -6 53 -3 13 -1 27 6 31 6 4 2 9 -11 14 -18 5 -21 14 -21 55 0 27 -4 51 -9
55 -6 3 -8 -3 -6 -15 2 -11 0 -22 -4 -24 -4 -3 -7 7 -6 21 0 15 -2 48 -5 75
-4 30 -2 49 4 52 6 2 4 5 -6 5 -9 1 -19 -5 -22 -11 -4 -9 -5 -8 -5 2 4 52 -2
81 -13 74 -10 -6 -10 -4 0 7 15 16 16 29 1 29 -5 0 -7 -4 -4 -10 3 -5 1 -10
-6 -10 -6 0 -9 8 -6 20 3 11 2 20 -3 20 -4 0 -6 14 -4 30 3 21 -1 30 -10 30
-17 0 -27 110 -11 111 6 0 2 4 -8 8 -10 4 -19 11 -19 16 0 6 -5 16 -11 24 -10
12 -8 14 8 8 19 -7 19 -6 3 7 -21 15 -24 46 -5 46 8 0 7 4 -3 10 -8 5 -19 10
-25 10 -5 0 -5 -4 2 -8 8 -5 9 -13 3 -22 -8 -12 -10 -11 -11 5 -1 11 0 27 1
34 2 13 -1 13 -17 0 -16 -12 -17 -12 -6 2 7 9 9 19 5 23 -4 4 -8 16 -8 27 -1
10 -3 20 -4 22 -3 2 -10 64 -10 92 -1 18 -2 19 -11 3 -6 -10 -15 -18 -22 -18
-8 0 -8 3 2 9 9 6 11 16 6 32 -7 22 -7 23 10 9 17 -14 17 -14 4 10 -17 30 -30
41 -41 34 -5 -3 -8 -2 -7 3 5 27 -5 42 -31 52 -17 5 -30 14 -29 18 4 25 -3 43
-17 43 -8 0 -12 5 -9 10 4 6 -4 19 -17 30 -13 11 -17 19 -10 20 6 0 12 -4 12
-10 0 -5 4 -10 9 -10 13 0 7 28 -9 43 -10 9 -11 9 -6 0 4 -7 2 -13 -3 -13 -6
0 -11 14 -11 31 0 16 -4 28 -9 24 -5 -3 -12 4 -16 15 -4 11 -11 17 -17 14 -7
-5 -8 -2 -2 7 14 23 13 38 -2 32 -8 -3 -14 1 -14 11 0 9 -7 16 -16 16 -8 0
-12 5 -9 10 4 6 11 8 16 5 5 -4 9 -1 9 5 0 7 -7 10 -15 6 -8 -3 -15 -1 -15 4
0 5 -8 7 -17 3 -15 -5 -15 -3 2 11 17 15 17 17 3 12 -15 -5 -18 1 -18 37 0 31
-3 38 -10 27 -9 -14 -15 -7 -11 14 1 4 -6 15 -16 23 -10 8 -13 12 -8 10 6 -3
10 5 10 17 0 15 -6 23 -19 24 -11 0 -26 9 -35 18 -9 9 -10 14 -3 10 6 -4 12
-2 12 3 0 6 -4 11 -10 11 -5 0 -6 8 -3 18 6 15 5 16 -12 2 -10 -8 -16 -10 -12
-3 4 7 0 17 -10 23 -16 10 -16 10 4 5 12 -3 25 -1 29 6 4 7 3 9 -4 6 -13 -9
-42 2 -42 15 0 6 7 7 16 4 8 -3 12 -2 9 4 -3 6 -15 10 -25 10 -10 0 -22 5 -26
12 -4 7 -3 8 4 4 7 -4 12 -2 12 3 0 6 -8 11 -19 11 -15 0 -18 6 -15 30 4 30
-9 40 -22 18 -4 -7 -3 -8 4 -4 8 5 10 1 5 -9 -4 -13 -8 -14 -14 -4 -4 7 -5 17
-3 21 5 8 -11 12 -31 8 -5 -1 -1 8 10 20 14 16 15 21 5 18 -10 -2 -15 5 -14
20 1 12 -3 22 -8 22 -5 0 -6 5 -2 12 4 6 3 8 -4 4 -6 -3 -9 -15 -7 -26 2 -12
0 -18 -6 -14 -6 3 -8 8 -5 11 3 3 1 14 -4 24 -7 12 -6 19 3 22 7 3 5 6 -5 6
-17 1 -23 13 -19 35 1 5 -7 6 -18 3 -11 -3 -20 -2 -19 2 2 21 -4 31 -23 31
-11 0 -18 4 -14 10 3 5 13 6 23 3 14 -5 14 -3 -2 9 -11 9 -29 13 -40 10 -12
-3 -18 -1 -14 3 5 5 -1 14 -12 22 -11 8 -20 24 -21 36 0 12 -3 16 -6 10 -2 -7
-12 -13 -21 -12 -11 0 -12 2 -4 6 6 2 12 9 12 15 0 6 -7 7 -16 4 -12 -5 -14
-1 -9 15 5 15 4 19 -4 15 -6 -4 -11 -3 -11 3 0 6 -8 8 -17 4 -10 -3 -15 -3
-11 2 4 4 3 14 -3 22 -9 9 -8 13 0 13 6 0 11 6 11 13 -1 6 -10 1 -22 -13 -20
-24 -20 -24 -14 -2 6 16 3 22 -8 22 -9 0 -16 5 -16 11 0 5 5 7 10 4 6 -3 10
-1 10 4 0 10 -17 15 -47 14 -7 -1 -10 4 -7 9 3 5 13 7 21 4 8 -3 11 -1 8 4 -3
6 -13 10 -21 10 -8 0 -14 9 -14 20 0 11 -3 19 -7 19 -22 -4 -30 3 -29 21 0 11
-3 20 -9 21 -5 1 -16 9 -23 18 -8 9 -11 10 -7 4 3 -7 2 -13 -3 -13 -17 0 -22
13 -9 28 10 13 8 14 -11 8 -12 -4 -22 -4 -21 1 3 18 -2 33 -10 31 -5 -2 -21
12 -35 31 -14 19 -26 30 -26 24 0 -6 7 -16 15 -23 8 -7 15 -17 15 -23 0 -5
-10 3 -22 19 -13 16 -26 31 -30 32 -5 2 -6 8 -3 12 3 5 0 12 -6 16 -7 4 -9 3
-6 -2 3 -6 2 -16 -3 -24 -6 -10 -8 -3 -7 20 2 30 -1 35 -23 38 -14 2 -29 8
-35 13 -7 7 -3 8 9 3 13 -5 17 -4 12 4 -4 7 -14 12 -21 12 -9 0 -12 6 -9 15 4
11 0 15 -16 15 -19 0 -21 2 -10 16 8 8 9 14 4 13 -5 -2 -19 0 -31 5 -20 6 -21
10 -12 28 7 13 7 18 1 14 -6 -3 -12 -1 -15 6 -2 7 -3 5 -2 -4 2 -10 -1 -18 -6
-18 -5 0 -9 8 -9 18 0 9 -5 24 -11 32 -9 13 -10 12 -5 -2 3 -10 0 -20 -6 -24
-6 -4 -8 -3 -4 4 3 6 -5 23 -18 37 -14 15 -24 32 -22 38 1 7 1 9 -1 5 -7 -12
-33 -9 -33 3 0 5 5 7 12 3 7 -5 8 -3 4 5 -5 7 -14 10 -21 7 -8 -3 -16 0 -19 7
-3 9 -8 8 -15 -3 -7 -9 -11 -11 -11 -3 0 7 8 17 18 23 15 10 15 10 -3 8 -15
-2 -19 2 -17 17 l4 20 -16 -20 c-15 -20 -15 -20 -11 2 4 26 -19 51 -31 32 -5
-8 -3 -9 6 -4 9 5 11 4 6 -4 -4 -6 -12 -9 -17 -5 -5 3 -7 10 -4 15 4 5 -1 9
-9 9 -9 0 -16 7 -16 15 0 8 -4 15 -10 15 -5 0 -8 6 -6 13 1 6 1 9 -1 5 -3 -5
-9 -8 -14 -8 -6 0 -7 5 -4 10 6 9 -8 15 -29 11 -5 -1 -6 5 -3 13 8 20 -3 28
-20 15 -10 -9 -13 -7 -13 10 0 13 -4 19 -10 16 -6 -4 -7 -11 -4 -17 4 -7 2 -8
-5 -4 -6 4 -9 12 -6 17 4 5 -3 9 -14 9 -12 0 -21 7 -21 15 0 8 -5 15 -11 15
-5 0 -8 -4 -4 -9 3 -5 0 -13 -7 -17 -7 -4 -10 -4 -6 1 4 4 2 17 -4 29 -7 11
-12 24 -11 27 1 3 -10 4 -24 1 -22 -4 -25 -2 -20 12 4 9 3 15 -2 11 -5 -3 -12
1 -15 7 -3 9 -5 8 -3 -2 1 -8 -3 -16 -8 -17 -6 -1 -9 6 -9 17 1 15 -2 17 -15
10 -20 -10 -50 3 -32 14 6 4 11 2 11 -4 0 -6 5 -8 11 -4 15 9 -9 23 -33 19
-21 -4 -23 5 -5 24 10 11 8 11 -10 2 -15 -8 -23 -8 -23 -1 0 5 -9 10 -19 10
-11 0 -21 5 -23 11 -2 5 -10 11 -18 12 -8 2 -21 6 -27 10 -7 5 -13 4 -13 -2 0
-6 -11 1 -24 14 -16 16 -32 23 -43 19 -10 -3 -7 2 7 10 l25 16 -25 -3 c-16 -1
-24 3 -22 11 1 9 -5 8 -22 -3 -18 -12 -26 -13 -32 -4 -4 7 -3 9 3 6 6 -4 17 1
24 10 12 15 11 16 -8 11 -13 -4 -23 -3 -23 1 0 4 -13 7 -29 6 -17 -1 -30 1
-29 4 3 29 -4 51 -17 51 -8 0 -15 -4 -15 -9 0 -5 -7 -12 -16 -15 -14 -5 -15
-4 -4 9 13 16 6 19 -32 16 -10 -1 -18 3 -18 9 0 6 5 8 12 4 7 -4 8 -3 4 5 -6
9 -11 9 -24 -1 -12 -10 -14 -10 -8 0 4 7 2 12 -4 12 -6 0 -9 4 -6 9 3 5 -1 11
-9 14 -10 4 -12 1 -9 -11 5 -16 5 -16 -9 0 -8 10 -25 19 -38 22 -13 2 -23 9
-22 15 2 6 -2 11 -8 11 -6 0 -17 7 -25 15 -15 14 -39 19 -76 16 -9 -1 -19 8
-23 20 -6 17 -9 19 -17 8 -7 -11 -11 -11 -15 -1 -2 6 -9 12 -14 12 -6 0 -8 -4
-4 -9 10 -17 -57 7 -72 26 -8 10 -12 12 -8 6 4 -9 1 -11 -10 -7 -13 5 -13 9
-3 23 10 13 9 13 -8 -1 -11 -10 -27 -18 -35 -18 -12 0 -11 2 1 10 8 5 10 10 4
10 -6 0 -14 -3 -18 -7 -10 -11 -36 -12 -36 -2 0 5 8 9 18 10 14 0 14 2 -3 8
-24 10 -38 4 -29 -11 4 -6 2 -8 -4 -4 -5 3 -13 0 -16 -6 -3 -7 -4 -4 -3 7 2
17 -4 20 -30 19 -30 -1 -38 6 -34 29 1 5 -3 6 -8 2 -6 -3 -8 -11 -5 -19 3 -7
-1 -13 -9 -13 -8 0 -14 7 -13 16 1 12 -8 16 -31 15 -18 0 -33 5 -33 10 0 6 -5
4 -10 -4 -9 -13 -10 -13 -11 0 -1 8 -1 17 -1 21 0 3 -10 5 -24 5 -18 0 -23 -4
-19 -15 4 -13 2 -13 -8 1 -9 11 -31 18 -64 20 -38 2 -49 6 -42 15 13 15 -10
23 -33 11 -11 -5 -18 -5 -18 1 0 6 -11 6 -30 1 -20 -6 -30 -5 -30 2 0 6 -6 6
-15 -2 -12 -10 -15 -10 -15 1 0 9 -3 10 -8 4 -9 -13 -72 -13 -72 -1 0 6 -7 1
-16 -10 -8 -10 -12 -13 -8 -5 5 10 1 11 -14 7 -11 -4 -23 -2 -26 3 -4 6 -18 6
-35 1 -18 -5 -33 -4 -39 2 -6 6 -16 7 -23 3 -17 -11 -98 -12 -92 -2 3 5 11 6
18 3 7 -2 15 1 18 7 3 9 -17 12 -69 14 -41 0 -74 -3 -74 -8 0 -5 5 -8 11 -6 6
1 14 -5 16 -13 4 -12 3 -12 -5 -1 -7 9 -12 10 -16 2 -11 -17 -27 -13 -24 5 2
10 -3 19 -9 21 -7 3 -13 0 -13 -7 0 -6 6 -8 13 -4 7 4 9 3 4 -2 -5 -5 -14 -9
-20 -9 -7 -1 -11 -7 -9 -15 3 -12 1 -12 -9 -3 -10 10 -15 9 -26 -5 -14 -16
-14 -16 -9 1 3 10 6 23 6 28 0 4 6 6 14 3 8 -3 16 -1 20 4 3 5 -4 8 -15 7 -22
-2 -52 -38 -41 -51 4 -5 -1 -2 -10 5 -21 15 -24 26 -5 15 9 -5 9 -4 0 6 -9 9
-16 10 -25 3 -18 -14 -45 -12 -45 4 0 8 4 9 11 4 7 -6 19 -4 30 5 11 8 15 14
10 14 -6 0 -15 -5 -22 -12 -9 -9 -12 -9 -12 0 0 7 -12 10 -30 8 -16 -2 -31 2
-33 7 -2 7 -6 7 -11 -1z m318 -20 c3 -5 -1 -9 -9 -9 -8 0 -15 4 -15 9 0 4 4 8
9 8 6 0 12 -4 15 -8z m-274 -12 c0 -5 -2 -10 -4 -10 -3 0 -8 5 -11 10 -3 6 -1
10 4 10 6 0 11 -4 11 -10z m935 -50 c3 -5 1 -10 -4 -10 -6 0 -11 5 -11 10 0 6
2 10 4 10 3 0 8 -4 11 -10z m560 -160 c3 -6 -1 -7 -9 -4 -18 7 -21 14 -7 14 6
0 13 -4 16 -10z m-2365 -32 c0 -4 -4 -8 -9 -8 -6 0 -12 4 -15 8 -3 5 1 9 9 9
8 0 15 -4 15 -9z m-642 -45 c7 -7 10 -13 5 -14 -4 0 -20 -3 -35 -5 -31 -5 -45
11 -28 31 12 15 36 10 58 -12z m254 -5 c-7 -7 -12 -19 -11 -27 0 -11 2 -12 6
-3 2 6 12 12 21 11 12 0 13 -2 3 -6 -11 -5 -11 -7 0 -14 11 -7 11 -9 1 -9 -7
0 -11 -4 -7 -9 3 -5 0 -13 -6 -17 -7 -4 -9 -3 -5 4 3 6 -2 17 -11 24 -19 14
-32 55 -14 44 5 -4 12 -2 16 4 3 5 9 10 13 10 3 0 1 -5 -6 -12z m-152 -7 c0
-5 -15 -8 -34 -8 -19 1 -33 4 -31 8 6 9 65 9 65 0z m272 -23 c-7 -7 -12 -8
-12 -2 0 14 12 26 19 19 2 -3 -1 -11 -7 -17z m-42 -28 c6 -11 7 -20 2 -20 -6
0 -12 9 -15 20 -3 11 -3 20 -1 20 2 0 8 -9 14 -20z m-270 -34 c0 -2 -7 -7 -16
-10 -8 -3 -12 -2 -9 4 6 10 25 14 25 6z m176 -91 c-2 -5 4 -19 13 -30 15 -19
15 -19 -4 -5 -11 8 -26 21 -32 29 -11 13 -13 13 -13 -2 0 -11 -5 -14 -15 -11
-14 6 -14 8 0 18 20 14 57 15 51 1z m-63 -42 c-3 -7 -6 -13 -8 -13 -2 0 -5 6
-8 13 -3 8 1 14 8 14 7 0 11 -6 8 -14z m-205 -46 c14 4 14 3 2 -5 -8 -6 -18
-8 -22 -6 -13 8 -9 -11 5 -25 8 -8 2 -7 -17 3 -16 8 -34 12 -41 10 -7 -3 -15
2 -19 12 -5 13 -4 14 7 6 8 -7 18 -7 27 -2 8 5 18 6 22 4 4 -3 8 1 9 8 0 9 2
10 5 1 3 -7 13 -9 22 -6z m3767 -46 c3 -5 0 -13 -6 -17 -7 -4 -9 -3 -5 4 3 6
-2 13 -11 15 -16 4 -16 5 -1 6 9 0 19 -3 23 -8z m-3904 -124 c-10 -9 -11 -8
-5 6 3 10 9 15 12 12 3 -3 0 -11 -7 -18z m-347 -152 c11 0 20 -6 22 -13 1 -7
0 -8 -3 -2 -2 5 -12 10 -21 10 -15 0 -15 -2 -2 -10 8 -5 10 -10 5 -10 -14 0
-35 21 -35 35 0 6 3 7 8 0 4 -5 16 -10 26 -10z m51 5 c3 -5 1 -10 -4 -10 -6 0
-11 5 -11 10 0 6 2 10 4 10 3 0 8 -4 11 -10z m0 -40 c3 -5 1 -10 -4 -10 -6 0
-11 5 -11 10 0 6 2 10 4 10 3 0 8 -4 11 -10z m-85 -42 c0 -5 4 -7 9 -4 7 5 8
-11 2 -47 0 -5 -11 -5 -22 -2 -15 5 -19 4 -15 -4 5 -7 2 -10 -6 -9 -7 2 -13
-5 -13 -14 0 -10 -6 -23 -13 -30 -6 -6 -12 -19 -12 -27 0 -20 -16 -3 -25 27
-5 16 -2 22 9 22 8 0 17 4 21 9 3 6 -3 8 -14 6 -11 -2 -26 4 -33 13 -11 13
-11 14 1 7 24 -14 61 -12 74 4 9 11 9 15 -1 18 -6 3 -9 10 -5 16 4 7 0 8 -11
4 -10 -4 -15 -3 -11 3 4 6 14 9 23 8 9 -2 16 2 15 9 -2 7 4 10 12 7 8 -4 15
-10 15 -16z m46 -3 c-1 -8 -5 -17 -8 -21 -5 -4 -4 16 1 34 3 9 9 -1 7 -13z
m-101 -35 c3 -5 1 -10 -4 -10 -6 0 -11 5 -11 10 0 6 2 10 4 10 3 0 8 -4 11
-10z m-145 -120 c-8 -5 -19 -10 -25 -10 -5 0 -3 5 5 10 8 5 20 10 25 10 6 0 3
-5 -5 -10z m5085 -10 c-3 -5 -12 -10 -18 -10 -7 0 -6 4 3 10 19 12 23 12 15 0z
m-5200 -299 c3 -5 2 -12 -3 -15 -5 -3 -9 1 -9 9 0 17 3 19 12 6z m5700 -251
c3 -5 1 -10 -4 -10 -6 0 -11 5 -11 10 0 6 2 10 4 10 3 0 8 -4 11 -10z m315
-410 c0 -5 -2 -10 -4 -10 -3 0 -8 5 -11 10 -3 6 -1 10 4 10 6 0 11 -4 11 -10z
m-6325 -120 c3 -6 -1 -7 -9 -4 -18 7 -21 14 -7 14 6 0 13 -4 16 -10z m6485
-184 c0 -3 -4 -8 -10 -11 -5 -3 -10 -1 -10 4 0 6 5 11 10 11 6 0 10 -2 10 -4z
m117 -192 c-3 -3 -12 -4 -19 -1 -8 3 -5 6 6 6 11 1 17 -2 13 -5z m43 -48 c0
-3 -4 -8 -10 -11 -5 -3 -10 -1 -10 4 0 6 5 11 10 11 6 0 10 -2 10 -4z m25 -96
c3 -5 1 -10 -4 -10 -6 0 -11 5 -11 10 0 6 2 10 4 10 3 0 8 -4 11 -10z m-7048
-872 c-3 -8 -6 -5 -6 6 -1 11 2 17 5 13 3 -3 4 -12 1 -19z m-17 -58 c0 -5 -5
-10 -11 -10 -5 0 -7 5 -4 10 3 6 8 10 11 10 2 0 4 -4 4 -10z m-17 -97 c-5 -12
-3 -14 8 -8 11 7 12 6 2 -7 -7 -8 -11 -18 -8 -21 3 -4 2 -5 -2 -2 -9 7 -13 37
-7 47 9 14 14 9 7 -9z m7423 -258 c1 -8 -1 -17 -5 -19 -4 -3 -7 6 -7 19 0 25
8 25 12 0z m-7381 -444 c3 -5 2 -12 -3 -15 -5 -3 -9 1 -9 9 0 17 3 19 12 6z
m7409 -76 c-4 -8 -11 -12 -16 -9 -6 4 -5 10 3 15 19 12 19 11 13 -6z m-7374
-281 c0 -8 -19 -13 -24 -6 -3 5 1 9 9 9 8 0 15 -2 15 -3z m-36 -30 c3 -8 2
-12 -4 -9 -6 3 -10 10 -10 16 0 14 7 11 14 -7z m30 -140 c3 -8 2 -12 -4 -9 -6
3 -10 10 -10 16 0 14 7 11 14 -7z m60 -300 c6 -15 -34 -10 -44 6 -5 8 -7 18
-4 22 6 9 42 -12 48 -28z m9 -44 c3 -11 1 -18 -4 -14 -5 3 -9 12 -9 20 0 20 7
17 13 -6z m23 -174 c1 -7 -4 -13 -12 -13 -9 0 -11 4 -4 12 5 7 8 15 5 18 -3 4
-2 5 2 2 4 -3 8 -11 9 -19z m49 -56 c-3 -5 -1 -10 4 -10 16 0 13 -56 -4 -70
-8 -7 -13 -16 -10 -19 15 -25 13 -69 -3 -84 -16 -14 -17 -13 -18 16 -1 18 1
24 3 15 6 -25 22 -23 20 2 -1 19 -10 25 -31 21 -5 -1 -4 4 2 11 12 15 11 35
-2 58 -5 8 -6 12 -1 8 4 -4 14 -3 22 3 8 8 13 8 13 1 0 -6 -6 -13 -12 -15 -10
-4 -10 -6 0 -6 17 -1 29 32 14 37 -7 2 -10 8 -6 13 3 5 -1 9 -8 9 -9 0 -9 3 2
10 19 12 23 12 15 0z m75 -150 c0 -5 -2 -10 -4 -10 -3 0 -8 5 -11 10 -3 6 -1
10 4 10 6 0 11 -4 11 -10z m116 -438 c-15 -3 -16 -6 -5 -13 17 -10 19 -56 3
-56 -7 0 -10 7 -6 15 4 11 1 13 -8 7 -9 -5 -11 -4 -6 4 4 6 12 9 17 6 5 -4 9
-2 9 4 0 5 -5 11 -12 13 -6 2 -12 11 -14 20 -1 11 4 14 20 10 19 -6 19 -7 2
-10z m59 -692 c-3 -5 -1 -10 6 -10 7 0 10 -2 7 -5 -3 -3 -13 -2 -22 1 -14 5
-15 9 -4 15 17 11 20 11 13 -1z m6226 -183 c-6 -8 -8 -17 -4 -20 3 -4 1 -7 -5
-7 -15 0 -15 13 0 28 16 16 23 15 9 -1z m-6124 -89 c4 -28 -6 -18 -12 12 -2
12 -1 20 2 16 4 -4 8 -16 10 -28z m6028 -258 c3 -6 -1 -7 -9 -4 -18 7 -21 14
-7 14 6 0 13 -4 16 -10z m-5498 -246 c-3 -3 -12 -4 -19 -1 -8 3 -5 6 6 6 11 1
17 -2 13 -5z m5400 -59 c0 -8 -4 -15 -9 -15 -4 0 -8 7 -8 15 0 8 4 15 8 15 5
0 9 -7 9 -15z m-87 -185 c0 -5 -5 -10 -11 -10 -5 0 -7 5 -4 10 3 6 8 10 11 10
2 0 4 -4 4 -10z m-5196 -246 c3 -8 2 -12 -4 -9 -6 3 -10 10 -10 16 0 14 7 11
14 -7z m4976 -34 c0 -5 -5 -10 -11 -10 -5 0 -7 5 -4 10 3 6 8 10 11 10 2 0 4
-4 4 -10z m-20 -144 c-1 -15 -30 -53 -30 -39 0 7 5 15 10 18 6 3 10 11 10 16
0 6 -4 8 -8 5 -5 -3 -9 1 -9 8 0 8 6 12 14 9 7 -3 13 -10 13 -17z m-4580 -290
c0 -2 -8 -10 -17 -17 -16 -13 -17 -12 -4 4 13 16 21 21 21 13z m60 -180 c0 -2
-7 -7 -16 -10 -8 -3 -12 -2 -9 4 6 10 25 14 25 6z m53 -1041 c-3 -9 -8 -14
-10 -11 -3 3 -2 9 2 15 9 16 15 13 8 -4z m2 -65 c-3 -5 -11 -10 -16 -10 -6 0
-7 5 -4 10 3 6 11 10 16 10 6 0 7 -4 4 -10z m0 -70 c3 -5 1 -10 -4 -10 -6 0
-11 5 -11 10 0 6 2 10 4 10 3 0 8 -4 11 -10z m1 -37 c-2 -9 -9 -19 -17 -21
-11 -3 -11 -1 1 7 8 6 11 11 7 11 -5 0 -5 5 -2 10 9 15 14 12 11 -7z m4391
-165 c-3 -8 -6 -5 -6 6 -1 11 2 17 5 13 3 -3 4 -12 1 -19z m-4547 -262 c0 -3
-4 -8 -10 -11 -5 -3 -10 -1 -10 4 0 6 5 11 10 11 6 0 10 -2 10 -4z m-340 -126
c0 -5 -5 -10 -11 -10 -5 0 -7 5 -4 10 3 6 8 10 11 10 2 0 4 -4 4 -10z m5522
-45 c16 -14 26 -25 23 -25 -4 0 -20 11 -37 25 -16 14 -26 25 -23 25 4 0 20
-11 37 -25z m-5842 -109 c0 -3 -4 -8 -10 -11 -5 -3 -10 -1 -10 4 0 6 5 11 10
11 6 0 10 -2 10 -4z m-585 -224 c-3 -3 -11 0 -18 7 -9 10 -8 11 6 5 10 -3 15
-9 12 -12z m-780 -362 c3 -5 1 -10 -4 -10 -6 0 -11 5 -11 10 0 6 2 10 4 10 3
0 8 -4 11 -10z m-945 -334 c0 -3 -4 -8 -10 -11 -5 -3 -10 -1 -10 4 0 6 5 11
10 11 6 0 10 -2 10 -4z m-1090 -340 c0 -3 -4 -8 -10 -11 -5 -3 -10 -1 -10 4 0
6 5 11 10 11 6 0 10 -2 10 -4z m12280 -126 c0 -5 -4 -10 -10 -10 -5 0 -10 5
-10 10 0 6 5 10 10 10 6 0 10 -4 10 -10z m90 -36 c0 -2 -7 -4 -15 -4 -8 0 -15
4 -15 10 0 5 7 7 15 4 8 -4 15 -8 15 -10z"/>
<path d="M4304 12052 c3 -6 0 -12 -6 -15 -7 -2 -1 -4 14 -3 34 1 34 2 7 17
-13 6 -19 7 -15 1z"/>
<path d="M3775 11361 c-10 -17 15 -45 29 -31 7 7 5 15 -6 26 -11 11 -18 13
-23 5z"/>
<path d="M3721 11271 c-8 -5 -9 -11 -3 -15 5 -3 15 1 22 9 14 16 3 20 -19 6z"/>
<path d="M2856 7057 c3 -10 9 -15 12 -12 3 3 0 11 -7 18 -10 9 -11 8 -5 -6z"/>
<path d="M5716 12352 c-3 -5 1 -9 9 -9 8 0 12 4 9 9 -3 4 -7 8 -9 8 -2 0 -6
-4 -9 -8z"/>
<path d="M6240 12350 c-13 -8 -12 -10 3 -10 9 0 17 5 17 10 0 12 -1 12 -20 0z"/>
<path d="M5510 12326 c0 -2 7 -7 16 -10 8 -3 12 -2 9 4 -6 10 -25 14 -25 6z"/>
<path d="M4956 12288 c3 -5 10 -6 15 -3 13 9 11 12 -6 12 -8 0 -12 -4 -9 -9z"/>
<path d="M5256 12253 c-6 -14 -5 -15 5 -6 7 7 10 15 7 18 -3 3 -9 -2 -12 -12z"/>
<path d="M4935 12231 c5 -9 1 -19 -11 -28 -17 -13 -17 -13 6 -9 25 4 29 22 8
41 -8 7 -8 6 -3 -4z"/>
<path d="M5110 12230 c0 -5 5 -10 11 -10 5 0 7 5 4 10 -3 6 -8 10 -11 10 -2 0
-4 -4 -4 -10z"/>
<path d="M7164 12198 c3 -15 26 -23 26 -8 0 6 -4 9 -9 6 -5 -4 -12 -1 -14 4
-3 6 -4 5 -3 -2z"/>
<path d="M4790 12191 c0 -6 4 -13 10 -16 6 -3 7 1 4 9 -7 18 -14 21 -14 7z"/>
<path d="M4869 12173 c-8 -10 -9 -14 -2 -10 6 4 14 3 18 -3 3 -5 2 -10 -3 -10
-5 0 -12 -9 -15 -19 -3 -14 -1 -18 10 -14 8 3 23 6 34 7 11 1 19 4 19 9 0 4 0
13 0 20 0 8 -3 8 -8 1 -4 -6 -16 -14 -26 -18 -20 -7 -20 -7 -1 14 14 16 16 21
5 18 -8 -2 -14 3 -12 10 3 17 -3 15 -19 -5z"/>
<path d="M7290 12170 c-9 -6 -10 -10 -3 -10 6 0 15 5 18 10 8 12 4 12 -15 0z"/>
<path d="M4700 12141 c0 -6 4 -13 10 -16 6 -3 7 1 4 9 -7 18 -14 21 -14 7z"/>
<path d="M4635 12130 c3 -5 8 -10 11 -10 2 0 4 5 4 10 0 6 -5 10 -11 10 -5 0
-7 -4 -4 -10z"/>
<path d="M7406 12103 c-6 -14 -5 -15 5 -6 7 7 10 15 7 18 -3 3 -9 -2 -12 -12z"/>
<path d="M4516 12083 c-6 -14 -5 -15 5 -6 7 7 10 15 7 18 -3 3 -9 -2 -12 -12z"/>
<path d="M4541 12084 c0 -11 3 -14 6 -6 3 7 2 16 -1 19 -3 4 -6 -2 -5 -13z"/>
<path d="M4474 12082 c3 -5 0 -13 -6 -15 -9 -4 -10 -6 -1 -6 17 -1 25 16 12
25 -7 4 -9 3 -5 -4z"/>
<path d="M4482 12051 c-11 -7 -11 -9 1 -14 16 -6 27 0 27 15 0 10 -11 10 -28
-1z"/>
<path d="M4525 12050 c3 -5 8 -10 11 -10 2 0 4 5 4 10 0 6 -5 10 -11 10 -5 0
-7 -4 -4 -10z"/>
<path d="M4906 12052 c-3 -5 1 -9 9 -9 8 0 12 4 9 9 -3 4 -7 8 -9 8 -2 0 -6
-4 -9 -8z"/>
<path d="M4255 12010 c3 -5 8 -10 11 -10 2 0 4 5 4 10 0 6 -5 10 -11 10 -5 0
-7 -4 -4 -10z"/>
<path d="M7632 11991 c-11 -7 -11 -9 0 -14 9 -3 15 1 15 9 0 8 -1 14 -1 14 -1
0 -7 -4 -14 -9z"/>
<path d="M4305 11929 c-3 -4 2 -6 10 -5 21 3 28 13 10 13 -9 0 -18 -4 -20 -8z"/>
<path d="M7796 11888 c3 -5 10 -6 15 -3 13 9 11 12 -6 12 -8 0 -12 -4 -9 -9z"/>
<path d="M3894 11786 c1 -8 5 -18 8 -22 4 -3 5 1 4 10 -1 8 -5 18 -8 22 -4 3
-5 -1 -4 -10z"/>
<path d="M4121 11671 c-8 -5 -9 -11 -3 -15 5 -3 12 1 16 9 6 17 6 18 -13 6z"/>
<path d="M4136 11643 c-6 -14 -5 -15 5 -6 7 7 10 15 7 18 -3 3 -9 -2 -12 -12z"/>
<path d="M4015 11630 c-3 -5 -1 -10 4 -10 6 0 11 5 11 10 0 6 -2 10 -4 10 -3
0 -8 -4 -11 -10z"/>
<path d="M4070 11620 c6 -11 13 -20 16 -20 2 0 0 9 -6 20 -6 11 -13 20 -16 20
-2 0 0 -9 6 -20z"/>
<path d="M3979 11603 c-13 -16 -12 -17 4 -4 9 7 17 15 17 17 0 8 -8 3 -21 -13z"/>
<path d="M3640 11330 c-9 -6 -10 -10 -3 -10 6 0 15 5 18 10 8 12 4 12 -15 0z"/>
<path d="M3637 11293 c3 -7 1 -13 -5 -13 -6 0 -12 4 -14 9 -1 5 -10 2 -18 -7
-13 -14 -12 -15 2 -9 21 7 40 -15 32 -37 -4 -12 0 -16 15 -16 12 0 21 -4 21
-10 0 -5 4 -10 9 -10 4 0 8 10 7 23 -1 23 -25 49 -38 41 -11 -7 -10 4 1 25 7
13 6 18 -4 18 -7 0 -11 -6 -8 -14z m28 -42 c3 -5 2 -12 -3 -15 -5 -3 -9 1 -9
9 0 17 3 19 12 6z"/>
<path d="M3649 11191 c6 -10 7 -22 3 -26 -4 -5 -1 -5 6 -1 9 5 9 12 2 27 -6
10 -13 19 -16 19 -2 0 0 -8 5 -19z"/>
<path d="M3537 11169 c7 -7 15 -10 18 -7 3 3 -2 9 -12 12 -14 6 -15 5 -6 -5z"/>
<path d="M3525 11140 c9 -16 18 -30 21 -30 2 0 -2 14 -11 30 -9 17 -18 30 -21
30 -2 0 2 -13 11 -30z"/>
<path d="M3499 11148 c-8 -27 -5 -36 9 -30 10 4 12 7 4 10 -7 2 -10 8 -6 13 3
5 3 9 0 9 -3 0 -6 -1 -7 -2z"/>
<path d="M3450 11129 c0 -5 5 -7 10 -4 6 3 10 8 10 11 0 2 -4 4 -10 4 -5 0
-10 -5 -10 -11z"/>
<path d="M3605 11130 c3 -5 11 -10 16 -10 6 0 7 5 4 10 -3 6 -11 10 -16 10 -6
0 -7 -4 -4 -10z"/>
<path d="M3513 11083 c0 -9 4 -10 14 -2 7 6 13 12 13 14 0 1 -6 2 -13 2 -8 0
-14 -6 -14 -14z"/>
<path d="M3466 11048 c3 -5 10 -6 15 -3 13 9 11 12 -6 12 -8 0 -12 -4 -9 -9z"/>
<path d="M3481 10964 c0 -11 3 -14 6 -6 3 7 2 16 -1 19 -3 4 -6 -2 -5 -13z"/>
<path d="M9127 10749 c7 -7 15 -10 18 -7 3 3 -2 9 -12 12 -14 6 -15 5 -6 -5z"/>
<path d="M3270 10530 c-13 -8 -12 -10 3 -10 9 0 17 5 17 10 0 12 -1 12 -20 0z"/>
<path d="M9476 10283 c-6 -14 -5 -15 5 -6 7 7 10 15 7 18 -3 3 -9 -2 -12 -12z"/>
<path d="M3116 9898 c3 -5 10 -6 15 -3 13 9 11 12 -6 12 -8 0 -12 -4 -9 -9z"/>
<path d="M9749 9793 c-13 -16 -12 -17 4 -4 16 13 21 21 13 21 -2 0 -10 -8 -17
-17z"/>
<path d="M3057 9683 c-10 -9 -9 -23 1 -23 5 0 9 7 9 15 0 17 -1 18 -10 8z"/>
<path d="M9874 9550 c0 -17 3 -30 7 -30 8 0 6 47 -3 55 -2 3 -4 -9 -4 -25z"/>
<path d="M9875 9500 c3 -5 8 -10 11 -10 2 0 4 5 4 10 0 6 -5 10 -11 10 -5 0
-7 -4 -4 -10z"/>
<path d="M2964 9406 c1 -8 5 -18 8 -22 4 -3 5 1 4 10 -1 8 -5 18 -8 22 -4 3
-5 -1 -4 -10z"/>
<path d="M2939 9333 c0 -5 -2 -16 -4 -26 -2 -11 -1 -16 3 -13 8 8 14 46 7 46
-3 0 -5 -3 -6 -7z"/>
<path d="M2870 9078 c0 -12 3 -18 7 -14 11 10 12 36 2 36 -5 0 -9 -10 -9 -22z"/>
<path d="M10026 9058 c3 -5 10 -6 15 -3 13 9 11 12 -6 12 -8 0 -12 -4 -9 -9z"/>
<path d="M10055 8991 c-3 -5 -2 -12 3 -15 5 -3 9 1 9 9 0 17 -3 19 -12 6z"/>
<path d="M10050 8949 c0 -5 5 -7 10 -4 6 3 10 8 10 11 0 2 -4 4 -10 4 -5 0
-10 -5 -10 -11z"/>
<path d="M2780 8780 c-9 -6 -10 -10 -3 -10 6 0 15 5 18 10 8 12 4 12 -15 0z"/>
<path d="M10110 8749 c0 -5 5 -7 10 -4 6 3 10 8 10 11 0 2 -4 4 -10 4 -5 0
-10 -5 -10 -11z"/>
<path d="M10147 8616 c-3 -8 -2 -18 3 -21 13 -8 24 15 12 27 -6 6 -11 4 -15
-6z"/>
<path d="M10169 8553 c-13 -16 -12 -17 4 -4 16 13 21 21 13 21 -2 0 -10 -8
-17 -17z"/>
<path d="M2713 8335 c0 -8 4 -15 9 -15 4 0 8 4 8 9 0 6 -4 12 -8 15 -5 3 -9
-1 -9 -9z"/>
<path d="M10206 8248 c3 -5 10 -6 15 -3 13 9 11 12 -6 12 -8 0 -12 -4 -9 -9z"/>
<path d="M10210 7750 c0 -5 5 -10 11 -10 5 0 7 5 4 10 -3 6 -8 10 -11 10 -2 0
-4 -4 -4 -10z"/>
<path d="M2781 7734 c0 -11 3 -14 6 -6 3 7 2 16 -1 19 -3 4 -6 -2 -5 -13z"/>
<path d="M2740 7450 c0 -5 5 -10 11 -10 5 0 7 5 4 10 -3 6 -8 10 -11 10 -2 0
-4 -4 -4 -10z"/>
<path d="M2777 7383 c-10 -9 -9 -23 1 -23 5 0 9 7 9 15 0 17 -1 18 -10 8z"/>
<path d="M2747 7273 c3 -7 8 -13 12 -13 4 0 8 6 8 13 0 8 -6 14 -13 14 -7 0
-10 -6 -7 -14z"/>
<path d="M10025 7220 c-3 -5 -1 -10 4 -10 6 0 11 5 11 10 0 6 -2 10 -4 10 -3
0 -8 -4 -11 -10z"/>
<path d="M2773 7153 c0 -7 5 -13 10 -13 5 0 5 -6 -2 -13 -8 -11 -6 -13 12 -12
29 3 43 -5 26 -16 -10 -6 -7 -8 8 -6 16 1 19 5 12 13 -7 8 -6 15 2 19 16 10
-8 24 -34 20 -12 -3 -17 0 -14 9 3 7 0 13 -7 13 -7 0 -13 -6 -13 -14z"/>
<path d="M2775 7019 c-4 -6 -5 -12 -2 -15 2 -3 7 2 10 11 7 17 1 20 -8 4z"/>
<path d="M2870 6919 c0 -5 5 -7 10 -4 6 3 10 8 10 11 0 2 -4 4 -10 4 -5 0 -10
-5 -10 -11z"/>
<path d="M2879 6872 c9 -7 10 -11 2 -15 -7 -4 -8 -5 -1 -4 16 3 14 21 -2 25
-10 3 -10 2 1 -6z"/>
<path d="M2870 6829 c0 -5 5 -7 10 -4 6 3 10 8 10 11 0 2 -4 4 -10 4 -5 0 -10
-5 -10 -11z"/>
<path d="M2903 6775 c-3 -9 -3 -18 -1 -21 3 -3 8 4 11 16 6 23 -1 27 -10 5z"/>
<path d="M9906 6703 c-6 -14 -5 -15 5 -6 7 7 10 15 7 18 -3 3 -9 -2 -12 -12z"/>
<path d="M2896 6688 c3 -5 10 -6 15 -3 13 9 11 12 -6 12 -8 0 -12 -4 -9 -9z"/>
<path d="M2983 6575 c-3 -9 -3 -18 -1 -21 3 -3 8 4 11 16 6 23 -1 27 -10 5z"/>
<path d="M3014 6536 c1 -8 5 -18 8 -22 4 -3 5 1 4 10 -1 8 -5 18 -8 22 -4 3
-5 -1 -4 -10z"/>
<path d="M2976 6523 c-6 -14 -5 -15 5 -6 7 7 10 15 7 18 -3 3 -9 -2 -12 -12z"/>
<path d="M2940 6496 c0 -2 8 -10 18 -17 15 -13 16 -12 3 4 -13 16 -21 21 -21
13z"/>
<path d="M3050 6451 c0 -5 7 -12 16 -15 14 -5 15 -4 4 9 -14 17 -20 19 -20 6z"/>
<path d="M3055 6410 c3 -5 8 -10 11 -10 2 0 4 5 4 10 0 6 -5 10 -11 10 -5 0
-7 -4 -4 -10z"/>
<path d="M3079 6381 c8 -5 10 -14 6 -22 -6 -11 -5 -11 5 -2 14 12 6 33 -13 33
-8 0 -7 -3 2 -9z"/>
<path d="M3095 6299 c-4 -6 -5 -12 -2 -15 2 -3 7 2 10 11 7 17 1 20 -8 4z"/>
<path d="M3119 6272 c10 -7 10 -11 1 -14 -9 -3 -8 -7 2 -16 12 -10 14 -8 13
10 -1 12 -8 24 -16 26 -12 3 -12 2 0 -6z"/>
<path d="M9935 6210 c-3 -5 -1 -10 4 -10 6 0 11 5 11 10 0 6 -2 10 -4 10 -3 0
-8 -4 -11 -10z"/>
<path d="M3157 6063 c2 -16 -2 -23 -13 -23 -12 0 -14 -4 -7 -12 6 -7 10 -25 9
-40 -1 -14 1 -26 4 -26 19 2 20 -4 3 -19 -10 -10 -14 -15 -9 -10 14 10 36 9
36 -3 0 -5 -6 -10 -14 -10 -8 0 -18 -4 -21 -10 -4 -6 1 -7 12 -4 14 5 13 2 -4
-14 -20 -18 -21 -21 -6 -27 10 -3 14 -3 11 1 -11 10 20 36 33 28 8 -5 9 -3 4
7 -12 19 -14 52 -4 65 6 7 1 18 -11 29 -11 10 -16 23 -13 29 11 17 12 36 3 36
-5 0 -10 6 -13 13 -2 6 -2 2 0 -10z m29 -90 c-7 -7 -21 -4 -21 5 0 4 -4 14 -9
22 -6 9 -1 7 12 -4 12 -11 20 -21 18 -23z"/>
<path d="M9805 5890 c-3 -5 -2 -10 4 -10 5 0 13 5 16 10 3 6 2 10 -4 10 -5 0
-13 -4 -16 -10z"/>
<path d="M3140 5810 c0 -5 5 -10 11 -10 5 0 7 5 4 10 -3 6 -8 10 -11 10 -2 0
-4 -4 -4 -10z"/>
<path d="M9750 5691 c0 -6 4 -13 10 -16 6 -3 7 1 4 9 -7 18 -14 21 -14 7z"/>
<path d="M9530 5409 c0 -5 5 -7 10 -4 6 3 10 8 10 11 0 2 -4 4 -10 4 -5 0 -10
-5 -10 -11z"/>
<path d="M3333 5118 c-2 -16 1 -18 10 -9 7 7 8 14 1 21 -6 6 -10 2 -11 -12z"/>
<path d="M9398 5043 c-22 -26 -33 -47 -20 -39 5 3 12 3 15 -1 2 -5 2 -2 0 6
-2 8 4 22 13 32 10 11 15 19 12 19 -3 0 -12 -8 -20 -17z"/>
<path d="M9356 4863 c-6 -14 -5 -15 5 -6 7 7 10 15 7 18 -3 3 -9 -2 -12 -12z"/>
<path d="M3795 4860 c3 -5 8 -10 11 -10 2 0 4 5 4 10 0 6 -5 10 -11 10 -5 0
-7 -4 -4 -10z"/>
<path d="M3795 4759 c-4 -6 -5 -12 -2 -15 2 -3 7 2 10 11 7 17 1 20 -8 4z"/>
<path d="M3885 4610 c3 -5 8 -10 11 -10 2 0 4 5 4 10 0 6 -5 10 -11 10 -5 0
-7 -4 -4 -10z"/>
<path d="M3910 4256 c0 -2 7 -7 16 -10 8 -3 12 -2 9 4 -6 10 -25 14 -25 6z"/>
<path d="M9036 4212 c-3 -5 1 -9 9 -9 8 0 12 4 9 9 -3 4 -7 8 -9 8 -2 0 -6 -4
-9 -8z"/>
<path d="M8950 4129 c0 -5 5 -7 10 -4 6 3 10 8 10 11 0 2 -4 4 -10 4 -5 0 -10
-5 -10 -11z"/>
<path d="M4147 4029 c-9 -6 -17 -15 -17 -22 0 -7 4 -6 10 3 8 12 12 13 19 2 7
-11 9 -11 14 2 8 20 -4 27 -26 15z"/>
<path d="M8950 3981 c0 -6 4 -13 10 -16 6 -3 7 1 4 9 -7 18 -14 21 -14 7z"/>
<path d="M8910 3969 c0 -15 18 -19 23 -6 3 8 -1 14 -9 14 -8 0 -14 -4 -14 -8z"/>
<path d="M4343 3676 c0 -8 6 -12 14 -9 7 3 10 9 7 14 -8 14 -21 11 -21 -5z"/>
<path d="M4377 3499 c4 -15 8 -17 14 -8 8 14 3 29 -11 29 -4 0 -6 -9 -3 -21z"/>
<path d="M4405 3360 c3 -5 8 -10 11 -10 2 0 4 5 4 10 0 6 -5 10 -11 10 -5 0
-7 -4 -4 -10z"/>
<path d="M4405 3330 c3 -5 11 -10 16 -10 6 0 7 5 4 10 -3 6 -11 10 -16 10 -6
0 -7 -4 -4 -10z"/>
<path d="M4410 3240 c0 -5 5 -10 11 -10 5 0 7 5 4 10 -3 6 -8 10 -11 10 -2 0
-4 -4 -4 -10z"/>
<path d="M4440 2730 c0 -5 5 -10 11 -10 5 0 7 5 4 10 -3 6 -8 10 -11 10 -2 0
-4 -4 -4 -10z"/>
<path d="M8850 2369 c0 -5 5 -7 10 -4 6 3 10 8 10 11 0 2 -4 4 -10 4 -5 0 -10
-5 -10 -11z"/>
<path d="M8856 2342 c-6 -10 -2 -39 7 -48 3 -4 5 7 4 25 -2 33 -3 35 -11 23z"/>
<path d="M8910 2099 c0 -5 5 -7 10 -4 6 3 10 8 10 11 0 2 -4 4 -10 4 -5 0 -10
-5 -10 -11z"/>
<path d="M4413 2065 c0 -8 4 -12 9 -9 5 3 6 10 3 15 -9 13 -12 11 -12 -6z"/>
<path d="M8950 2070 c0 -5 5 -10 11 -10 5 0 7 5 4 10 -3 6 -8 10 -11 10 -2 0
-4 -4 -4 -10z"/>
<path d="M4336 1971 c8 -8 43 -8 38 0 -2 4 -13 7 -24 6 -10 -1 -17 -3 -14 -6z"/>
<path d="M3795 1730 c-3 -5 -1 -10 4 -10 6 0 11 5 11 10 0 6 -2 10 -4 10 -3 0
-8 -4 -11 -10z"/>
<path d="M3544 1668 c-4 -7 -4 -10 1 -6 4 4 14 3 21 -3 13 -10 32 6 20 18 -3
4 -6 1 -6 -7 0 -10 -3 -10 -14 -1 -11 9 -16 9 -22 -1z"/>
<path d="M2896 1363 c-6 -14 -5 -15 5 -6 7 7 10 15 7 18 -3 3 -9 -2 -12 -12z"/>
<path d="M1945 960 c3 -5 8 -10 11 -10 2 0 4 5 4 10 0 6 -5 10 -11 10 -5 0 -7
-4 -4 -10z"/>
<path d="M1485 810 c-3 -5 -1 -10 4 -10 6 0 11 5 11 10 0 6 -2 10 -4 10 -3 0
-8 -4 -11 -10z"/>
<path d="M11411 813 c-1 -18 13 -23 29 -11 12 8 12 9 -2 5 -9 -3 -19 -1 -22 6
-3 9 -5 9 -5 0z"/>
<path d="M11630 710 c0 -5 5 -10 11 -10 5 0 7 5 4 10 -3 6 -8 10 -11 10 -2 0
-4 -4 -4 -10z"/>
<path d="M400 469 c0 -5 -4 -8 -9 -4 -5 3 -12 1 -15 -4 -4 -5 2 -8 11 -7 15 3
33 26 19 26 -3 0 -6 -5 -6 -11z"/>
<path d="M12061 464 c0 -11 3 -14 6 -6 3 7 2 16 -1 19 -3 4 -6 -2 -5 -13z"/>
<path d="M12128 433 c7 -3 16 -2 19 1 4 3 -2 6 -13 5 -11 0 -14 -3 -6 -6z"/>
</g>
</svg>
